<svg width="500" height="317" viewBox="0 0 500 317" fill="none" xmlns="http://www.w3.org/2000/svg">
<path d="M449.9 304.1H416.8V304.3H449.9V304.1Z" fill="#EBEBEB"/>
<path d="M331.2 306.9H322.5V307.1H331.2V306.9Z" fill="#EBEBEB"/>
<path d="M415.8 294.9H396.6V295.1H415.8V294.9Z" fill="#EBEBEB"/>
<path d="M95.7 296.5H52.5V296.7H95.7V296.5Z" fill="#EBEBEB"/>
<path d="M110.9 296.5H104.6V296.7H110.9V296.5Z" fill="#EBEBEB"/>
<path d="M225.2 300.8H131.5V301H225.2V300.8Z" fill="#EBEBEB"/>
<path d="M500 288H0V288.2H500V288Z" fill="#EBEBEB"/>
<g opacity="0.5">
<path d="M240.6 218.8H150.6V249.9H240.6V218.8Z" fill="#94B7CD"/>
<path d="M240.6 249.8H150.6V280.9H240.6V249.8Z" fill="#94B7CD"/>
<path d="M184.8 249.8L196 218.8H178.7L167.5 249.8H184.8Z" fill="#F5F5F5"/>
<path d="M204.3 218.8H200.5L189.3 249.8H193.1L204.3 218.8Z" fill="#F5F5F5"/>
<path d="M173.6 280.9L184.8 249.8H167.5L156.3 280.9H173.6Z" fill="#F5F5F5"/>
<path d="M193.1 249.8H189.3L178.1 280.9H181.9L193.1 249.8Z" fill="#F5F5F5"/>
<path d="M240.526 223.519V220.419L150.526 220.419V223.519L240.526 223.519Z" fill="#58A494"/>
<path d="M240.548 254.34V251.24L150.548 251.24V254.34L240.548 254.34Z" fill="#58A494"/>
<path d="M149 217.399V282.299H150.6H152.2H239H240.6H242.2V217.399H149V217.399ZM239 279.099H152.1V251.499H239V279.099ZM239 248.299H152.1V220.699H239V248.299Z" fill="#F5F5F5"/>
<path d="M333.7 218.8H243.7V249.9H333.7V218.8Z" fill="#94B7CD"/>
<path d="M333.7 249.8H243.7V280.9H333.7V249.8Z" fill="#94B7CD"/>
<path d="M287.3 249.8L298.5 218.8H281.3L270.1 249.8H287.3Z" fill="#F5F5F5"/>
<path d="M306.8 218.8H303L291.8 249.8H295.6L306.8 218.8Z" fill="#F5F5F5"/>
<path d="M276.1 280.9L287.3 249.8H270.1L258.9 280.9H276.1Z" fill="#F5F5F5"/>
<path d="M295.6 249.8H291.8L280.6 280.9H284.4L295.6 249.8Z" fill="#F5F5F5"/>
<path d="M333.662 223.483V220.383L243.662 220.383V223.483L333.662 223.483Z" fill="#58A494"/>
<path d="M333.684 254.304V251.204L243.684 251.204V254.304L333.684 254.304Z" fill="#58A494"/>
<path d="M242.1 217.399V282.299H243.7H245.3H332.2H333.8H335.4V217.399H242.1V217.399ZM332.1 279.099H245.2V251.499H332.1V279.099ZM332.1 248.299H245.2V220.699H332.1V248.299Z" fill="#F5F5F5"/>
<path d="M426.8 218.8H336.8V249.9H426.8V218.8Z" fill="#94B7CD"/>
<path d="M426.8 249.8H336.8V280.9H426.8V249.8Z" fill="#94B7CD"/>
<path d="M375.1 249.8L386.3 218.8H369.1L357.9 249.8H375.1Z" fill="#F5F5F5"/>
<path d="M394.7 218.8H390.9L379.7 249.8H383.5L394.7 218.8Z" fill="#F5F5F5"/>
<path d="M363.9 280.9L375.1 249.8H357.9L346.7 280.9H363.9Z" fill="#F5F5F5"/>
<path d="M383.5 249.8H379.7L368.5 280.9H372.3L383.5 249.8Z" fill="#F5F5F5"/>
<path d="M426.798 223.547V220.447L336.798 220.447V223.547L426.798 223.547Z" fill="#58A494"/>
<path d="M426.819 254.369V251.269L336.819 251.269V254.369L426.819 254.369Z" fill="#58A494"/>
<path d="M335.3 217.399V282.299H336.9H338.5H425.4H427H428.6V217.399H335.3V217.399ZM425.3 279.099H338.4V251.499H425.3V279.099V279.099ZM425.3 248.299H338.4V220.699H425.3V248.299V248.299Z" fill="#F5F5F5"/>
<path d="M419.4 286.9H158L156.6 282.3H420.7L419.4 286.9Z" fill="#58A494"/>
<path d="M291.4 237.199C291.4 238.699 290.2 239.899 288.7 239.899C287.2 239.899 286 238.699 286 237.199C286 235.699 287.2 234.499 288.7 234.499C290.2 234.499 291.4 235.699 291.4 237.199Z" fill="#58A494"/>
<path d="M291.4 236.399C291.4 237.899 290.2 239.099 288.7 239.099C287.2 239.099 286 237.899 286 236.399C286 234.899 287.2 233.699 288.7 233.699C290.2 233.699 291.4 234.999 291.4 236.399Z" fill="#1D84C6"/>
<path d="M291.4 265.7C291.4 267.2 290.2 268.4 288.7 268.4C287.2 268.4 286 267.2 286 265.7C286 264.2 287.2 263 288.7 263C290.2 263 291.4 264.3 291.4 265.7Z" fill="#58A494"/>
<path d="M291.4 265C291.4 266.5 290.2 267.7 288.7 267.7C287.2 267.7 286 266.5 286 265C286 263.5 287.2 262.3 288.7 262.3C290.2 262.3 291.4 263.5 291.4 265Z" fill="#1D84C6"/>
<path d="M198.3 237.199C198.3 238.699 197.1 239.899 195.6 239.899C194.1 239.899 192.9 238.699 192.9 237.199C192.9 235.699 194.1 234.499 195.6 234.499C197.1 234.499 198.3 235.699 198.3 237.199Z" fill="#58A494"/>
<path d="M198.3 236.399C198.3 237.899 197.1 239.099 195.6 239.099C194.1 239.099 192.9 237.899 192.9 236.399C192.9 234.899 194.1 233.699 195.6 233.699C197.1 233.699 198.3 234.999 198.3 236.399Z" fill="#1D84C6"/>
<path d="M198.3 265.7C198.3 267.2 197.1 268.4 195.6 268.4C194.1 268.4 192.9 267.2 192.9 265.7C192.9 264.2 194.1 263 195.6 263C197.1 263 198.3 264.3 198.3 265.7Z" fill="#58A494"/>
<path d="M198.3 265C198.3 266.5 197.1 267.7 195.6 267.7C194.1 267.7 192.9 266.5 192.9 265C192.9 263.5 194.1 262.3 195.6 262.3C197.1 262.3 198.3 263.5 198.3 265Z" fill="#1D84C6"/>
<path d="M386.2 237.199C386.2 238.699 385 239.899 383.5 239.899C382 239.899 380.8 238.699 380.8 237.199C380.8 235.699 382 234.499 383.5 234.499C385 234.499 386.2 235.699 386.2 237.199Z" fill="#58A494"/>
<path d="M386.2 236.399C386.2 237.899 385 239.099 383.5 239.099C382 239.099 380.8 237.899 380.8 236.399C380.8 234.899 382 233.699 383.5 233.699C385 233.699 386.2 234.999 386.2 236.399Z" fill="#1D84C6"/>
<path d="M386.2 265.7C386.2 267.2 385 268.4 383.5 268.4C382 268.4 380.8 267.2 380.8 265.7C380.8 264.2 382 263 383.5 263C385 263 386.2 264.3 386.2 265.7Z" fill="#58A494"/>
<path d="M386.2 265C386.2 266.5 385 267.7 383.5 267.7C382 267.7 380.8 266.5 380.8 265C380.8 263.5 382 262.3 383.5 262.3C385 262.3 386.2 263.5 386.2 265Z" fill="#1D84C6"/>
</g>
<path d="M106.8 208.8L107.5 243.1H105.5L105.7 208.8H106.8Z" fill="#8B5D54"/>
<path d="M104 214.299C103.9 214.399 104.5 214.999 101.7 214.999C94.7001 214.999 82.7001 214.299 79.8001 209.799C75.7001 203.299 90.5001 204.399 90.3001 200.899C90.2001 197.399 72.9001 199.699 71.6001 194.699C70.3001 189.699 81.7001 190.999 82.1001 188.399C82.5001 185.799 68.9001 188.799 66.9001 183.399C64.8001 177.999 74.5001 181.199 73.6001 178.999C72.7001 176.799 62.4001 167.299 68.7001 165.499C75.0001 163.699 84.3001 173.499 88.1001 174.599C92.0001 175.699 96.4001 166.499 100.8 169.799C105.2 173.099 96.2001 186.899 102.1 188.799C106.4 190.199 105.7 185.199 111.6 185.499C119.8 185.999 115 205.699 104 214.299Z" fill="#A8DB76"/>
<path d="M112.9 215.699L109.9 242.699H111.4L114.1 215.699H112.9Z" fill="#8B5D54"/>
<path d="M108 218.899L110 242.699H108.4L106.8 218.899H108Z" fill="#8B5D54"/>
<path d="M112.9 217.8C117.3 221.5 126.5 224 131 222.8C135.6 221.6 126.2 216.9 128.4 214.7C130.6 212.5 140 223.3 143.8 220.7C147.6 218.1 139.6 212.9 140.9 211C142.1 209.1 149.7 216 154.2 213.6C158.7 211.2 150.7 208.1 152.6 207.1C154.5 206.2 166.5 205.5 163.6 201C160.7 196.4 149.1 197.8 146 196.5C142.9 195.2 144.8 189.1 140.1 188.9C135.4 188.7 132.9 202.4 128.1 200.5C124.5 199.1 128.2 194.9 124.1 193.3C116.8 190.5 111.2 216.3 112.9 217.8Z" fill="#97C867"/>
<g opacity="0.3">
<path opacity="0.3" d="M112.9 217.8C117.3 221.5 126.5 224 131 222.8C135.6 221.6 126.2 216.9 128.4 214.7C130.6 212.5 140 223.3 143.8 220.7C147.6 218.1 139.6 212.9 140.9 211C142.1 209.1 149.7 216 154.2 213.6C158.7 211.2 150.7 208.1 152.6 207.1C154.5 206.2 166.5 205.5 163.6 201C160.7 196.4 149.1 197.8 146 196.5C142.9 195.2 144.8 189.1 140.1 188.9C135.4 188.7 132.9 202.4 128.1 200.5C124.5 199.1 128.2 194.9 124.1 193.3C116.8 190.5 111.2 216.3 112.9 217.8Z" fill="#97C867"/>
</g>
<path d="M107.9 219.499C105.9 222.599 100.8 225.999 97.7001 226.199C94.6001 226.399 99.5001 221.599 97.7001 220.699C95.9001 219.799 92.3001 228.299 89.4001 227.399C86.6001 226.599 90.4001 221.799 89.3001 220.899C88.2001 219.999 84.9001 225.699 81.7001 225.099C78.5001 224.499 82.7001 220.999 81.4001 220.799C80.1001 220.599 72.6001 222.599 73.4001 219.199C74.3001 215.799 81.7001 214.399 83.3001 212.999C84.9001 211.599 82.6001 208.199 85.4001 207.099C88.2001 205.999 92.5001 213.999 95.1001 211.899C97.0001 210.299 93.9001 208.499 96.2001 206.699C100.1 203.499 108.6 218.299 107.9 219.499Z" fill="#97C867"/>
<g opacity="0.3">
<path opacity="0.3" d="M107.9 219.499C105.9 222.599 100.8 225.999 97.7001 226.199C94.6001 226.399 99.5001 221.599 97.7001 220.699C95.9001 219.799 92.3001 228.299 89.4001 227.399C86.6001 226.599 90.4001 221.799 89.3001 220.899C88.2001 219.999 84.9001 225.699 81.7001 225.099C78.5001 224.499 82.7001 220.999 81.4001 220.799C80.1001 220.599 72.6001 222.599 73.4001 219.199C74.3001 215.799 81.7001 214.399 83.3001 212.999C84.9001 211.599 82.6001 208.199 85.4001 207.099C88.2001 205.999 92.5001 213.999 95.1001 211.899C97.0001 210.299 93.9001 208.499 96.2001 206.699C100.1 203.499 108.6 218.299 107.9 219.499Z" fill="#97C867"/>
</g>
<path d="M97.8 286.899C92.1 276.199 88.9 243.099 93.2 239.499H126.6C130.9 243.099 127.7 276.199 122 286.899H97.8Z" fill="#C78976"/>
<path d="M380.4 0H354.4L328.2 299.3H354.2C366.2 299.3 376.8 289.5 377.9 277.5L400.3 21.8C401.4 9.7 392.5 0 380.4 0Z" fill="#1D84C6"/>
<path d="M396.5 30.0004C396.6 28.8004 397.6 27.9004 398.8 27.9004C400 27.9004 400.8 28.8004 400.7 30.0004L398.9 50.1004C398.8 51.3004 397.8 52.2004 396.6 52.2004C395.4 52.2004 394.6 51.3004 394.7 50.1004L396.5 30.0004Z" fill="#1D84C6"/>
<path opacity="0.3" d="M396.5 30.0004C396.6 28.8004 397.6 27.9004 398.8 27.9004C400 27.9004 400.8 28.8004 400.7 30.0004L398.9 50.1004C398.8 51.3004 397.8 52.2004 396.6 52.2004C395.4 52.2004 394.6 51.3004 394.7 50.1004L396.5 30.0004Z" fill="white"/>
<path d="M348.9 299.3H241.9C229.9 299.3 221 289.5 222 277.5L244.4 21.8C245.5 9.8 256.1 0 268.1 0H375.1C387.1 0 396 9.8 395 21.8L372.6 277.5C371.6 289.5 361 299.3 348.9 299.3Z" fill="#263238"/>
<path d="M374.7 5H346.9C345.1 5 343.4 6.4 343 8.2L342.8 9.1C341.9 13.5 337.8 16.8 333.4 16.8H307C302.6 16.8 299.1 13.5 298.9 9.1V8.2C298.8 6.4 297.4 5 295.6 5H267.8C258.5 5 250.3 12.5 249.5 21.8L227.1 277.5C226.3 286.8 233.1 294.3 242.4 294.3H349.4C358.7 294.3 366.9 286.8 367.7 277.5L390 21.8C390.8 12.5 384 5 374.7 5Z" fill="#1D84C6"/>
<path opacity="0.8" d="M374.7 5H346.9C345.1 5 343.4 6.4 343 8.2L342.8 9.1C341.9 13.5 337.8 16.8 333.4 16.8H307C302.6 16.8 299.1 13.5 298.9 9.1V8.2C298.8 6.4 297.4 5 295.6 5H267.8C258.5 5 250.3 12.5 249.5 21.8L227.1 277.5C226.3 286.8 233.1 294.3 242.4 294.3H349.4C358.7 294.3 366.9 286.8 367.7 277.5L390 21.8C390.8 12.5 384 5 374.7 5Z" fill="white"/>
<g opacity="0.6">
<path opacity="0.6" d="M314.5 7.8002C314.4 9.0002 313.4 9.9002 312.2 9.9002C311 9.9002 310.2 8.9002 310.3 7.8002C310.4 6.6002 311.4 5.7002 312.6 5.7002C313.7 5.7002 314.6 6.7002 314.5 7.8002Z" fill="black"/>
<path opacity="0.6" d="M329.7 5.7002C328.9 5.7002 323.3 5.7002 322.4 5.7002C321.2 5.7002 320.2 6.7002 320.1 7.8002C320 9.0002 320.9 9.9002 322 9.9002C322.7 9.9002 328.6 9.9002 329.3 9.9002C330.5 9.9002 331.5 8.9002 331.6 7.8002C331.8 6.7002 330.9 5.7002 329.7 5.7002Z" fill="black"/>
</g>
<path d="M261.5 16.7H263.8L264 14.5H261.7L261.5 16.7Z" fill="#1D84C6"/>
<path d="M266.2 14.5002L266 16.7002H268.3L268.5 14.5002L268.7 12.2002H266.4L266.2 14.5002Z" fill="#1D84C6"/>
<path d="M271.1 10L270.9 12.2L270.7 14.5L270.5 16.7H272.8L273 14.5L273.2 12.2L273.4 10H271.1Z" fill="#1D84C6"/>
<path d="M367.8 10.1L367.7 11.7H366.6L366.3 15H367.4L367.3 16.6H377.2L377.8 10H367.8V10.1ZM371.8 15.1H368.5L368.8 11.8H372.1L371.8 15.1Z" fill="#1D84C6"/>
<path opacity="0.5" d="M365.6 152.9H250.8C247.3 152.9 244.7 150 245 146.5L251.9 67.1998C252.2 63.6998 255.3 60.7998 258.9 60.7998H373.7C377.2 60.7998 379.8 63.6998 379.5 67.1998L372.6 146.5C372.3 150 369.2 152.9 365.6 152.9Z" fill="white"/>
<path d="M250.8 152.899H365.6C369.1 152.899 372.3 149.999 372.6 146.499L376.5 101.899L373.8 106.899L371.1 111.899H368.8L367 106.899L363.8 91.8994L359.9 84.3994H355.3L353.2 81.8994H346.4L341.4 86.8994L339.6 81.8994H335L332.3 86.8994L330.5 81.8994L327.6 89.3994L325.1 91.8994L322.6 94.3994H318L315.5 96.8994L312.8 101.899L308 104.399L303.7 101.899H299L296.3 106.899L294.2 104.399H292L289.5 106.899L287 109.399L284.9 106.899H280.3L278.5 101.899L275.8 106.899L273.1 111.899L270.4 116.899L265.4 121.899L261.3 116.899L256.3 121.899L251.3 126.899H246.7L245 146.499C244.7 149.999 247.3 152.899 250.8 152.899Z" fill="#1D84C6"/>
<path opacity="0.3" d="M250.8 152.899H365.6C369.1 152.899 372.3 149.999 372.6 146.499L376.5 101.899L373.8 106.899L371.1 111.899H368.8L367 106.899L363.8 91.8994L359.9 84.3994H355.3L353.2 81.8994H346.4L341.4 86.8994L339.6 81.8994H335L332.3 86.8994L330.5 81.8994L327.6 89.3994L325.1 91.8994L322.6 94.3994H318L315.5 96.8994L312.8 101.899L308 104.399L303.7 101.899H299L296.3 106.899L294.2 104.399H292L289.5 106.899L287 109.399L284.9 106.899H280.3L278.5 101.899L275.8 106.899L273.1 111.899L270.4 116.899L265.4 121.899L261.3 116.899L256.3 121.899L251.3 126.899H246.7L245 146.499C244.7 149.999 247.3 152.899 250.8 152.899Z" fill="white"/>
<path d="M250.8 152.899H365.6C369.1 152.899 372.3 149.999 372.6 146.499L375.8 109.399L373.3 111.899L370.8 114.399H366.2L361.9 111.899L357.8 106.899L355.3 109.399H346.2L343.7 111.899H341.4L338.9 114.399L336.8 111.899H332.2L329 121.899L324.9 116.899H311.2L308.7 119.399H304.1L301.6 121.899H297L294.5 124.399H289.9L287.8 121.899L283 124.399H278.4L273.6 126.899L268.8 129.399H264.2L259.4 131.899L255.3 126.899L245.7 131.899L244.4 146.499C244.7 149.999 247.3 152.899 250.8 152.899Z" fill="#1D84C6"/>
<path opacity="0.5" d="M250.8 152.899H365.6C369.1 152.899 372.3 149.999 372.6 146.499L375.8 109.399L373.3 111.899L370.8 114.399H366.2L361.9 111.899L357.8 106.899L355.3 109.399H346.2L343.7 111.899H341.4L338.9 114.399L336.8 111.899H332.2L329 121.899L324.9 116.899H311.2L308.7 119.399H304.1L301.6 121.899H297L294.5 124.399H289.9L287.8 121.899L283 124.399H278.4L273.6 126.899L268.8 129.399H264.2L259.4 131.899L255.3 126.899L245.7 131.899L244.4 146.499C244.7 149.999 247.3 152.899 250.8 152.899Z" fill="white"/>
<path opacity="0.5" d="M361.5 200.4H246.7C243.2 200.4 240.6 197.5 240.9 194L242.3 178.3C242.6 174.8 245.7 171.9 249.3 171.9H364C367.5 171.9 370.1 174.8 369.8 178.3L368.4 194C368.1 197.6 365 200.4 361.5 200.4Z" fill="white"/>
<path opacity="0.5" d="M358.8 231.3H244C240.5 231.3 237.9 228.4 238.2 224.9L239.6 209.2C239.9 205.7 243 202.8 246.6 202.8H361.4C364.9 202.8 367.5 205.7 367.2 209.2L365.8 224.9C365.4 228.5 362.3 231.3 358.8 231.3Z" fill="white"/>
<path opacity="0.5" d="M356.1 262.2H241.3C237.8 262.2 235.2 259.3 235.5 255.8L236.9 240.1C237.2 236.6 240.3 233.7 243.9 233.7H358.7C362.2 233.7 364.8 236.6 364.5 240.1L363.1 255.8C362.7 259.4 359.6 262.2 356.1 262.2Z" fill="white"/>
<path d="M255.8 144.1C255.4 144.5 254.8 144.7 254 144.8L253.9 145.9H253.1L253.2 144.8C252.7 144.8 252.3 144.7 251.8 144.5C251.4 144.4 251 144.2 250.8 143.9L251.3 142.9C251.5 143.1 251.8 143.3 252.2 143.4C252.5 143.5 252.9 143.6 253.3 143.7L253.5 141.7C253 141.6 252.7 141.5 252.3 141.3C252 141.2 251.7 141 251.6 140.7C251.4 140.4 251.3 140.1 251.4 139.7C251.4 139.2 251.7 138.7 252.1 138.3C252.5 137.9 253.1 137.7 253.9 137.6L254 136.5H254.8L254.7 137.6C255.1 137.6 255.4 137.7 255.8 137.8C256.1 137.9 256.4 138 256.7 138.2L256.2 139.2C255.7 138.9 255.2 138.7 254.6 138.7L254.4 140.7C254.9 140.8 255.3 140.9 255.6 141.1C255.9 141.2 256.2 141.4 256.3 141.7C256.5 142 256.6 142.3 256.5 142.7C256.5 143.2 256.2 143.7 255.8 144.1ZM252.8 140.1C253 140.2 253.2 140.3 253.5 140.4L253.7 138.6C253.4 138.7 253.1 138.8 252.9 138.9C252.7 139.1 252.6 139.3 252.6 139.5C252.6 139.8 252.7 140 252.8 140.1ZM254.9 143.4C255.1 143.2 255.2 143.1 255.2 142.8C255.2 142.6 255.1 142.4 255 142.3C254.8 142.2 254.6 142 254.3 142L254.1 143.8C254.5 143.6 254.7 143.5 254.9 143.4Z" fill="#263238"/>
<path d="M262.9 137.7L262.3 144.7H261L261.5 138.8H260L260.1 137.7H262.9Z" fill="#263238"/>
<path d="M266.7 137.7L266.1 144.7H264.8L265.3 138.8H263.8L263.9 137.7H266.7Z" fill="#263238"/>
<path d="M269 143.3C269.1 143.5 269.2 143.7 269.2 143.9C269.2 144 269.2 144.1 269.1 144.2C269.1 144.3 269 144.5 268.9 144.7L268.3 146.1H267.5L268 144.6C267.9 144.5 267.8 144.4 267.7 144.3C267.6 144.2 267.6 144 267.6 143.8C267.6 143.6 267.7 143.4 267.9 143.2C268.1 143 268.3 143 268.5 143C268.7 143 268.8 143.2 269 143.3Z" fill="#263238"/>
<path d="M275.2 143.6L275.1 144.7H269.9L270 143.8L273 141.2C273.3 140.9 273.6 140.6 273.7 140.4C273.8 140.2 273.9 140 273.9 139.7C273.9 139.4 273.8 139.1 273.6 138.9C273.4 138.7 273.1 138.6 272.7 138.6C272 138.6 271.4 138.8 271 139.3L270.2 138.6C270.5 138.2 270.9 137.9 271.4 137.7C271.9 137.5 272.4 137.4 273 137.4C273.8 137.4 274.4 137.6 274.8 137.9C275.2 138.3 275.4 138.8 275.4 139.4C275.4 139.8 275.3 140.1 275.1 140.5C274.9 140.8 274.6 141.2 274.1 141.6L272.1 143.4H275.2V143.6Z" fill="#263238"/>
<path d="M280.6 141.2C280.9 141.6 281 142 281 142.6C281 143 280.8 143.4 280.6 143.7C280.4 144 280 144.3 279.6 144.5C279.2 144.7 278.6 144.8 278 144.8C277.5 144.8 277 144.7 276.6 144.6C276.1 144.5 275.8 144.3 275.5 144L276.1 143C276.3 143.2 276.6 143.4 277 143.5C277.4 143.6 277.7 143.7 278.1 143.7C278.6 143.7 278.9 143.6 279.2 143.4C279.5 143.2 279.6 143 279.7 142.6C279.7 142.3 279.6 142 279.4 141.8C279.2 141.6 278.8 141.5 278.3 141.5H277.7L277.8 140.6L279.6 138.7H276.4L276.5 137.6H281.3L281.2 138.5L279.3 140.5C279.8 140.6 280.3 140.9 280.6 141.2Z" fill="#263238"/>
<path d="M288.1 143.1H286.9L286.8 144.7H285.5L285.6 143.1H281.8L281.9 142.2L285.7 137.7H287.1L283.5 142H285.8L285.9 140.6H287.1L287 142H288.2L288.1 143.1Z" fill="#263238"/>
<path d="M290.2 143.3C290.3 143.5 290.4 143.7 290.4 143.9C290.4 144 290.4 144.1 290.3 144.2C290.3 144.3 290.2 144.5 290.1 144.7L289.5 146.1H288.7L289.2 144.6C289.1 144.5 289 144.4 288.9 144.3C288.8 144.2 288.8 144 288.8 143.8C288.8 143.6 288.9 143.4 289.1 143.2C289.3 143 289.5 143 289.7 143C289.9 143 290 143.2 290.2 143.3Z" fill="#263238"/>
<path d="M295.8 141C296.2 141.4 296.4 141.9 296.4 142.6C296.4 143 296.2 143.4 296 143.7C295.8 144 295.4 144.3 295 144.5C294.6 144.7 294.1 144.8 293.4 144.8C292.9 144.8 292.4 144.7 292 144.6C291.5 144.5 291.2 144.3 290.9 144L291.5 143C291.7 143.2 292 143.4 292.4 143.5C292.8 143.6 293.1 143.7 293.5 143.7C294 143.7 294.3 143.6 294.6 143.4C294.9 143.2 295 142.9 295.1 142.6C295.1 142.2 295 142 294.7 141.8C294.4 141.6 294 141.5 293.3 141.5H291.6L292.3 137.7H296.4L296.3 138.8H293.3L293 140.4H293.7C294.7 140.4 295.4 140.6 295.8 141Z" fill="#263238"/>
<path d="M298.5 144.6C298.4 144.2 298.4 143.8 298.5 143.3C298.5 142.8 298.6 142.4 298.8 142C298.9 141.6 299.1 141.2 299.3 140.9H299.9C299.7 141.3 299.5 141.6 299.4 142C299.3 142.4 299.2 142.8 299.2 143.2C299.2 143.6 299.2 144 299.2 144.4C299.3 144.8 299.4 145.2 299.5 145.5H298.9C298.7 145.3 298.5 145 298.5 144.6Z" fill="#263238"/>
<path d="M302.9 143.9H302.3L302.2 144.7H301.6L301.7 143.9H299.8V143.4L301.7 141.1H302.4L300.6 143.3H301.7L301.8 142.6H302.4L302.3 143.3H302.9V143.9Z" fill="#263238"/>
<path d="M303.3 144.6C303.2 144.5 303.2 144.4 303.2 144.3C303.2 144.2 303.3 144.1 303.3 144C303.4 143.9 303.5 143.9 303.6 143.9C303.7 143.9 303.8 143.9 303.9 144C304 144.1 304 144.2 304 144.3C304 144.4 303.9 144.5 303.9 144.6C303.8 144.7 303.7 144.7 303.6 144.7C303.5 144.7 303.4 144.7 303.3 144.6Z" fill="#263238"/>
<path d="M305.1 144.5C304.9 144.4 304.7 144.2 304.6 143.9C304.5 143.6 304.5 143.3 304.5 142.9C304.5 142.5 304.6 142.2 304.8 141.9C305 141.6 305.1 141.4 305.4 141.3C305.6 141.2 305.9 141.1 306.2 141.1C306.5 141.1 306.7 141.2 306.9 141.3C307.1 141.4 307.3 141.6 307.4 141.9C307.5 142.2 307.5 142.5 307.5 142.9C307.5 143.3 307.4 143.6 307.2 143.9C307 144.2 306.9 144.4 306.6 144.5C306.4 144.6 306.1 144.7 305.8 144.7C305.6 144.7 305.3 144.7 305.1 144.5ZM306.5 143.9C306.7 143.7 306.8 143.4 306.8 143C306.8 142.6 306.8 142.3 306.7 142.1C306.6 141.9 306.4 141.8 306.1 141.8C305.9 141.8 305.6 141.9 305.5 142.1C305.3 142.3 305.2 142.6 305.2 143C305.2 143.4 305.2 143.7 305.3 143.9C305.4 144.1 305.6 144.2 305.9 144.2C306.2 144.2 306.4 144.1 306.5 143.9Z" fill="#263238"/>
<path d="M310.1 142.8C310.3 143 310.4 143.3 310.4 143.6C310.4 143.8 310.3 144 310.2 144.2C310.1 144.4 309.9 144.5 309.7 144.6C309.5 144.7 309.2 144.7 308.9 144.7C308.7 144.7 308.4 144.7 308.2 144.6C308 144.5 307.8 144.4 307.6 144.3L307.9 143.8C308 143.9 308.2 144 308.3 144.1C308.5 144.2 308.7 144.2 308.9 144.2C309.1 144.2 309.3 144.2 309.5 144.1C309.6 144 309.7 143.9 309.7 143.7C309.7 143.5 309.7 143.4 309.5 143.3C309.4 143.2 309.1 143.2 308.8 143.2H308L308.3 141.3H310.4V141.8H308.9L308.8 142.6H309.1C309.5 142.5 309.9 142.6 310.1 142.8Z" fill="#263238"/>
<path d="M311 142.8C310.9 142.6 310.8 142.4 310.8 142.1C310.8 141.8 310.9 141.6 311.1 141.4C311.3 141.2 311.5 141.1 311.7 141.1C311.9 141.1 312.1 141.2 312.3 141.4C312.4 141.6 312.5 141.8 312.5 142.1C312.5 142.4 312.4 142.6 312.2 142.8C312 143 311.8 143.1 311.6 143.1C311.4 143.1 311.1 143 311 142.8ZM311.9 142.6C312 142.5 312 142.3 312.1 142.1C312.1 141.9 312.1 141.8 312 141.7C311.9 141.6 311.8 141.5 311.7 141.5C311.6 141.5 311.5 141.6 311.4 141.7C311.3 141.8 311.3 142 311.2 142.1C311.2 142.3 311.2 142.4 311.3 142.5C311.4 142.6 311.5 142.7 311.6 142.7C311.7 142.7 311.8 142.7 311.9 142.6ZM313.8 141.2H314.3L311.6 144.7H311.1L313.8 141.2ZM313.1 144.4C313 144.2 312.9 144 312.9 143.7C312.9 143.4 313 143.2 313.2 143C313.4 142.8 313.6 142.7 313.8 142.7C314 142.7 314.2 142.8 314.4 143C314.5 143.2 314.6 143.4 314.6 143.7C314.6 144 314.5 144.2 314.3 144.4C314.1 144.6 313.9 144.7 313.7 144.7C313.5 144.7 313.3 144.6 313.1 144.4ZM314.1 144.2C314.2 144.1 314.2 143.9 314.3 143.8C314.3 143.6 314.3 143.5 314.2 143.4C314.1 143.3 314 143.2 313.9 143.2C313.8 143.2 313.7 143.3 313.6 143.4C313.5 143.5 313.5 143.7 313.4 143.9C313.4 144.1 313.4 144.2 313.5 144.3C313.6 144.4 313.7 144.5 313.8 144.5C313.9 144.4 314 144.3 314.1 144.2Z" fill="#263238"/>
<path d="M314.6 145.6C314.8 145.2 315 144.9 315.1 144.5C315.2 144.1 315.3 143.7 315.4 143.3C315.4 142.9 315.4 142.5 315.4 142.1C315.3 141.7 315.2 141.3 315 141H315.6C315.8 141.3 315.9 141.6 316 142C316.1 142.4 316.1 142.8 316 143.3C316 143.8 315.9 144.2 315.7 144.6C315.6 145 315.4 145.3 315.2 145.7H314.6V145.6Z" fill="#263238"/>
<path d="M328.624 286.9H263.824C260.324 286.9 257.724 284 258.024 280.5L258.424 276C258.724 272.5 261.824 269.6 265.424 269.6H330.224C333.724 269.6 336.324 272.5 336.024 276L335.624 280.5C335.324 284 332.224 286.9 328.624 286.9Z" fill="#1CB393"/>
<path d="M277.8 278.8C278 279.1 278.1 279.5 278 279.9C277.9 280.5 277.7 281 277.2 281.3C276.7 281.6 276 281.8 275.1 281.8H271.6L272.2 274.8H275.5C276.3 274.8 276.9 275 277.4 275.3C277.8 275.6 278 276.1 278 276.6C278 276.9 277.9 277.3 277.7 277.5C277.5 277.7 277.3 278 277 278.1C277.3 278.3 277.6 278.5 277.8 278.8ZM273.5 275.9L273.3 277.8H275.1C275.6 277.8 275.9 277.7 276.2 277.6C276.5 277.4 276.6 277.2 276.6 276.9C276.6 276.6 276.5 276.3 276.3 276.2C276.1 276 275.7 276 275.3 276H273.5V275.9ZM276.7 279.8C276.8 279.1 276.3 278.8 275.3 278.8H273.2L273 280.8H275.1C276.1 280.8 276.7 280.5 276.7 279.8Z" fill="white"/>
<path d="M280.1 281.1C279.6 280.6 279.4 279.8 279.5 278.8L279.8 274.8H281.1L280.8 278.7C280.7 280.1 281.2 280.8 282.4 280.8C283.6 280.8 284.2 280.1 284.4 278.7L284.7 274.8H286L285.7 278.8C285.6 279.8 285.3 280.6 284.7 281.1C284.1 281.6 283.3 281.9 282.4 281.9C281.3 281.9 280.6 281.7 280.1 281.1Z" fill="white"/>
<path d="M290.3 279.399L290.1 281.899H288.8L289 279.399L286.6 274.899H288L289.8 278.299L292.2 274.899H293.5L290.3 279.399Z" fill="white"/>
<path d="M303.2 274.8L302.6 281.8H301.5L298.1 277.1L297.7 281.8H296.4L297 274.8H298.1L301.5 279.5L301.9 274.8H303.2Z" fill="white"/>
<path d="M305.9 281.5C305.4 281.2 304.9 280.8 304.7 280.2C304.4 279.6 304.3 279 304.4 278.4C304.5 277.7 304.7 277.1 305.1 276.6C305.5 276.1 306 275.6 306.6 275.3C307.2 275 307.9 274.8 308.6 274.8C309.3 274.8 309.9 275 310.5 275.3C311 275.6 311.5 276 311.7 276.6C312 277.1 312.1 277.8 312 278.5C311.9 279.2 311.7 279.8 311.3 280.4C310.9 280.9 310.4 281.4 309.8 281.7C309.2 282 308.5 282.2 307.8 282.2C307.1 282.2 306.4 281.8 305.9 281.5ZM309.2 280.5C309.6 280.3 309.9 280 310.2 279.6C310.4 279.2 310.6 278.8 310.6 278.3C310.6 277.8 310.6 277.4 310.4 277C310.2 276.6 310 276.3 309.6 276.1C309.2 275.9 308.8 275.8 308.4 275.8C308 275.8 307.5 275.9 307.1 276.1C306.7 276.3 306.4 276.6 306.1 277C305.9 277.4 305.7 277.8 305.7 278.3C305.7 278.8 305.7 279.2 305.9 279.6C306.1 280 306.3 280.3 306.7 280.5C307.1 280.7 307.5 280.8 307.9 280.8C308.3 280.8 308.8 280.7 309.2 280.5Z" fill="white"/>
<path d="M323.6 274.8L320.7 281.8H319.3L318 276.6L315.8 281.8H314.4L312.7 274.8H314.1L315.4 280.1L317.7 274.8H318.9L320.2 280.2L322.5 274.8H323.6Z" fill="white"/>
<path d="M277.1 186.7C277.3 186.9 277.3 187.2 277.3 187.6C277.3 188.1 277 188.5 276.6 188.7C276.2 189 275.6 189.1 274.9 189.1H272.1L272.6 183.5H275.2C275.9 183.5 276.4 183.6 276.7 183.9C277 184.2 277.2 184.5 277.1 185C277.1 185.3 277 185.5 276.8 185.7C276.7 185.9 276.5 186.1 276.2 186.2C276.8 186.3 277 186.5 277.1 186.7ZM273.7 184.4L273.6 185.9H275.1C275.5 185.9 275.7 185.8 276 185.7C276.2 185.6 276.3 185.4 276.3 185.1C276.3 184.8 276.2 184.7 276.1 184.5C275.9 184.4 275.6 184.3 275.3 184.3H273.7V184.4ZM276.3 187.5C276.3 187 276 186.7 275.2 186.7H273.5L273.4 188.3H275.1C275.8 188.3 276.3 188.1 276.3 187.5Z" fill="#263238"/>
<path d="M279.8 184.4H277.9L278 183.5H282.8L282.7 184.4H280.8L280.4 189.1H279.4L279.8 184.4Z" fill="#263238"/>
<path d="M284.1 188.8C283.7 188.6 283.3 188.2 283.1 187.8C282.9 187.4 282.8 186.9 282.8 186.3C282.8 185.8 283 185.3 283.3 184.8C283.6 184.4 284 184 284.5 183.8C285 183.6 285.5 183.4 286.1 183.4C286.6 183.4 287 183.5 287.3 183.6C287.7 183.8 288 184 288.2 184.3L287.5 184.9C287.1 184.5 286.7 184.2 286.1 184.2C285.7 184.2 285.4 184.3 285 184.5C284.7 184.7 284.4 184.9 284.2 185.2C284 185.5 283.9 185.8 283.9 186.2C283.9 186.6 283.9 186.9 284.1 187.2C284.2 187.5 284.5 187.7 284.8 187.9C285.1 188.1 285.4 188.2 285.8 188.2C286.4 188.2 286.9 188 287.4 187.5L288 188.1C287.7 188.4 287.4 188.6 287 188.8C286.6 189 286.2 189 285.7 189C285 189.2 284.5 189.1 284.1 188.8Z" fill="#263238"/>
<path d="M273.8 219.2L273.7 220.1H269.5L270 214.5H274.1L274 215.4H271L270.9 216.9H273.6L273.5 217.8H270.8L270.7 219.3H273.8V219.2Z" fill="#263238"/>
<path d="M276.4 215.3H274.5L274.6 214.4H279.4L279.3 215.3H277.4L277 220H276L276.4 215.3Z" fill="#263238"/>
<path d="M285.2 214.4L284.7 220H283.7L283.9 217.6H281L280.8 220H279.8L280.3 214.4H281.3L281.1 216.7H284L284.2 214.4H285.2Z" fill="#263238"/>
<path d="M267.3 245.3H268.3L267.9 250H270.8L270.7 250.9H266.7L267.3 245.3Z" fill="#263238"/>
<path d="M272.6 246.2H270.7L270.8 245.3H275.6L275.5 246.2H273.6L273.2 250.9H272.2L272.6 246.2Z" fill="#263238"/>
<path d="M276.9 250.7C276.5 250.5 276.1 250.1 275.9 249.7C275.7 249.3 275.6 248.8 275.6 248.2C275.6 247.7 275.8 247.2 276.1 246.7C276.4 246.3 276.8 245.9 277.3 245.7C277.8 245.5 278.3 245.3 278.9 245.3C279.4 245.3 279.8 245.4 280.1 245.5C280.5 245.7 280.8 245.9 281 246.2L280.3 246.8C279.9 246.4 279.5 246.1 278.9 246.1C278.5 246.1 278.2 246.2 277.8 246.4C277.5 246.6 277.2 246.8 277 247.1C276.8 247.4 276.7 247.7 276.7 248.1C276.7 248.5 276.7 248.8 276.9 249.1C277 249.4 277.3 249.6 277.6 249.8C277.9 250 278.2 250.1 278.6 250.1C279.2 250.1 279.7 249.9 280.2 249.4L280.8 250C280.5 250.3 280.2 250.5 279.8 250.7C279.4 250.9 279 250.9 278.5 250.9C277.9 251 277.4 250.9 276.9 250.7Z" fill="#263238"/>
<path d="M328.5 188.7C328.2 189 327.7 189.2 327.1 189.2L327 190.1H326.3L326.4 189.2C326 189.2 325.6 189.1 325.3 189C325 188.9 324.7 188.7 324.5 188.6L324.9 187.8C325.1 188 325.3 188.1 325.6 188.2C325.9 188.3 326.2 188.4 326.5 188.4L326.6 186.8C326.2 186.7 325.9 186.6 325.7 186.5C325.5 186.4 325.3 186.2 325.1 186C324.9 185.8 324.9 185.5 324.9 185.2C324.9 184.8 325.1 184.4 325.5 184.1C325.8 183.8 326.3 183.6 326.9 183.6L327 182.7H327.7L327.6 183.6C327.9 183.6 328.2 183.7 328.5 183.8C328.8 183.9 329 184 329.2 184.1L328.8 184.9C328.4 184.7 328 184.5 327.5 184.5L327.4 186.1C327.8 186.2 328.1 186.3 328.3 186.4C328.5 186.5 328.7 186.7 328.9 186.9C329.1 187.1 329.1 187.4 329.1 187.7C329 188 328.8 188.4 328.5 188.7ZM326.1 185.5C326.2 185.6 326.4 185.7 326.7 185.8L326.8 184.4C326.5 184.4 326.3 184.5 326.2 184.7C326.1 184.8 326 185 326 185.2C326 185.3 326 185.4 326.1 185.5ZM327.8 188.1C327.9 188 328 187.8 328 187.6C328 187.4 328 187.3 327.8 187.2C327.7 187.1 327.5 187 327.2 186.9L327.1 188.3C327.4 188.3 327.7 188.2 327.8 188.1Z" fill="#263238"/>
<path d="M334.2 183.5L333.7 189.1H332.7L333.1 184.4H331.9L332 183.5H334.2Z" fill="#263238"/>
<path d="M337.2 183.5L336.7 189.1H335.7L336.1 184.4H334.9L335 183.5H337.2Z" fill="#263238"/>
<path d="M339.1 188.1C339.2 188.2 339.3 188.4 339.2 188.6C339.2 188.7 339.2 188.8 339.1 188.9C339.1 189 339 189.1 338.9 189.3L338.4 190.4H337.8L338.2 189.2C338.1 189.2 338 189.1 337.9 189C337.8 188.9 337.8 188.8 337.8 188.6C337.8 188.4 337.9 188.2 338 188.1C338.1 188 338.3 187.9 338.5 187.9C338.7 187.9 338.9 187.9 339.1 188.1Z" fill="#263238"/>
<path d="M344 188.301L343.9 189.201H339.8L339.9 188.501L342.3 186.401C342.6 186.201 342.8 186.001 342.9 185.801C343 185.601 343.1 185.401 343.1 185.301C343.1 185.001 343.1 184.801 342.9 184.701C342.7 184.601 342.5 184.501 342.1 184.501C341.5 184.501 341.1 184.701 340.7 185.101L340 184.501C340.2 184.201 340.6 184.001 340.9 183.801C341.3 183.601 341.7 183.601 342.2 183.601C342.8 183.601 343.3 183.701 343.6 184.001C343.9 184.301 344.1 184.701 344 185.201C344 185.501 343.9 185.801 343.7 186.101C343.5 186.401 343.3 186.701 342.9 187.001L341.3 188.401H344V188.301Z" fill="#263238"/>
<path d="M348.4 186.4C348.6 186.7 348.8 187 348.7 187.5C348.7 187.8 348.6 188.1 348.4 188.4C348.2 188.7 347.9 188.9 347.6 189C347.3 189.2 346.8 189.2 346.4 189.2C346 189.2 345.6 189.1 345.3 189C344.9 188.9 344.6 188.7 344.4 188.5L344.9 187.7C345.1 187.9 345.3 188 345.6 188.1C345.9 188.2 346.2 188.2 346.5 188.2C346.9 188.2 347.2 188.1 347.4 188C347.6 187.8 347.7 187.6 347.8 187.4C347.8 187.1 347.7 186.9 347.6 186.8C347.4 186.7 347.1 186.6 346.7 186.6H346L346.1 185.9L347.5 184.4H345L345.1 183.5H348.9L348.8 184.2L347.3 185.8C347.7 185.9 348.1 186.1 348.4 186.4Z" fill="#263238"/>
<path d="M354.3 187.901H353.3L353.2 189.201H352.2L352.3 187.901H349.2L349.3 187.201L352.4 183.601H353.5L350.6 187.001H352.4L352.5 185.901H353.5L353.4 187.001H354.4L354.3 187.901Z" fill="#263238"/>
<path d="M356 188.1C356.1 188.2 356.2 188.4 356.1 188.6C356.1 188.7 356.1 188.8 356 188.9C356 189 355.9 189.1 355.8 189.3L355.3 190.4H354.7L355.1 189.2C355 189.2 354.9 189.1 354.8 189C354.7 188.9 354.7 188.8 354.7 188.6C354.7 188.4 354.8 188.2 354.9 188.1C355 188 355.2 187.9 355.4 187.9C355.7 187.9 355.9 187.9 356 188.1Z" fill="#263238"/>
<path d="M360.5 186.2C360.9 186.5 361 186.9 361 187.5C361 187.8 360.9 188.1 360.7 188.4C360.5 188.7 360.2 188.9 359.9 189C359.6 189.2 359.1 189.2 358.7 189.2C358.3 189.2 357.9 189.1 357.6 189C357.2 188.9 356.9 188.7 356.7 188.5L357.2 187.7C357.4 187.9 357.6 188 357.9 188.1C358.2 188.2 358.5 188.2 358.8 188.2C359.2 188.2 359.5 188.1 359.7 188C359.9 187.8 360 187.6 360.1 187.4C360.1 187.1 360 186.9 359.8 186.7C359.6 186.6 359.2 186.5 358.7 186.5H357.3L357.9 183.5H361.2L361.1 184.4H358.7L358.5 185.7H359C359.6 185.7 360.2 185.9 360.5 186.2Z" fill="#263238"/>
<path d="M325.8 219.6C325.5 219.9 325 220.1 324.4 220.1L324.3 221H323.6L323.7 220.1C323.3 220.1 322.9 220 322.6 219.9C322.3 219.8 322 219.6 321.8 219.5L322.2 218.7C322.4 218.9 322.6 219 322.9 219.1C323.2 219.2 323.5 219.3 323.8 219.3L323.9 217.7C323.5 217.6 323.2 217.5 323 217.4C322.8 217.3 322.6 217.1 322.4 216.9C322.2 216.7 322.2 216.4 322.2 216.1C322.2 215.7 322.4 215.3 322.8 215C323.1 214.7 323.6 214.5 324.2 214.5L324.3 213.6H325L324.9 214.5C325.2 214.5 325.5 214.6 325.8 214.7C326.1 214.8 326.3 214.9 326.5 215L326.1 215.8C325.7 215.6 325.3 215.4 324.8 215.4L324.7 217C325.1 217.1 325.4 217.2 325.6 217.3C325.8 217.4 326 217.6 326.2 217.8C326.4 218 326.4 218.3 326.4 218.6C326.3 218.9 326.1 219.3 325.8 219.6ZM323.4 216.4C323.5 216.5 323.7 216.6 324 216.7L324.1 215.3C323.8 215.3 323.6 215.4 323.5 215.6C323.4 215.7 323.3 215.9 323.3 216.1C323.2 216.2 323.3 216.3 323.4 216.4ZM325.1 219C325.2 218.9 325.3 218.7 325.3 218.5C325.3 218.3 325.3 218.2 325.1 218.1C325 218 324.8 217.9 324.5 217.8L324.4 219.2C324.7 219.2 324.9 219.1 325.1 219Z" fill="#263238"/>
<path d="M331.5 214.399L331 219.999H330L330.4 215.299H329.2L329.3 214.399H331.5V214.399Z" fill="#263238"/>
<path d="M333.3 219.8C333 219.6 332.7 219.2 332.6 218.8C332.4 218.4 332.4 217.8 332.4 217.3C332.5 216.7 332.6 216.2 332.8 215.8C333 215.4 333.3 215 333.7 214.8C334.1 214.6 334.5 214.5 334.9 214.5C335.3 214.5 335.7 214.6 336.1 214.8C336.4 215 336.7 215.4 336.8 215.8C337 216.2 337 216.8 337 217.3C336.9 217.9 336.8 218.4 336.6 218.8C336.4 219.2 336.1 219.6 335.7 219.8C335.3 220 334.9 220.1 334.5 220.1C334 220.1 333.6 220 333.3 219.8ZM335.5 218.7C335.8 218.4 335.9 217.9 336 217.2C336.1 216.5 336 216.1 335.8 215.7C335.6 215.4 335.3 215.2 334.9 215.2C334.5 215.2 334.2 215.4 333.9 215.7C333.6 216 333.5 216.5 333.4 217.2C333.3 217.9 333.4 218.3 333.6 218.7C333.8 219.1 334.1 219.2 334.5 219.2C334.9 219.2 335.3 219.1 335.5 218.7Z" fill="#263238"/>
<path d="M338.6 219C338.7 219.1 338.8 219.3 338.7 219.5C338.7 219.6 338.7 219.7 338.6 219.8C338.6 219.9 338.5 220 338.4 220.2L337.9 221.3H337.3L337.7 220.1C337.6 220.1 337.5 220 337.4 219.9C337.3 219.8 337.3 219.7 337.3 219.5C337.3 219.3 337.4 219.1 337.5 219C337.6 218.9 337.8 218.8 338 218.8C338.3 218.8 338.5 218.8 338.6 219Z" fill="#263238"/>
<path d="M341.7 214.399L341.2 219.999H340.2L340.6 215.299H339.4L339.5 214.399H341.7V214.399Z" fill="#263238"/>
<path d="M344.7 214.399L344.2 219.999H343.2L343.6 215.299H342.4L342.5 214.399H344.7V214.399Z" fill="#263238"/>
<path d="M350.4 218.8H349.4L349.3 220.1H348.3L348.4 218.8H345.3L345.4 218.1L348.5 214.5H349.6L346.7 217.9H348.5L348.6 216.8H349.6L349.5 217.9H350.5L350.4 218.8Z" fill="#263238"/>
<path d="M352.1 219C352.2 219.1 352.3 219.3 352.2 219.5C352.2 219.6 352.2 219.7 352.1 219.8C352.1 219.9 352 220 351.9 220.2L351.4 221.3H350.8L351.2 220.1C351.1 220.1 351 220 350.9 219.9C350.8 219.8 350.8 219.7 350.8 219.5C350.8 219.3 350.9 219.1 351 219C351.1 218.9 351.3 218.8 351.5 218.8C351.9 218.8 352 218.8 352.1 219Z" fill="#263238"/>
<path d="M356.8 217.299C357 217.599 357.2 217.899 357.1 218.399C357.1 218.699 357 218.999 356.8 219.299C356.6 219.599 356.3 219.799 356 219.899C355.7 220.099 355.2 220.099 354.8 220.099C354.4 220.099 354 219.999 353.7 219.899C353.3 219.799 353 219.599 352.8 219.399L353.3 218.599C353.5 218.799 353.7 218.899 354 218.999C354.3 219.099 354.6 219.099 354.9 219.099C355.3 219.099 355.6 218.999 355.8 218.899C356 218.699 356.1 218.499 356.2 218.299C356.2 217.999 356.1 217.799 356 217.699C355.8 217.599 355.5 217.499 355.1 217.499H354.6L354.7 216.799L356.1 215.299H353.6L353.7 214.399H357.5L357.4 215.099L355.9 216.699C356.1 216.799 356.5 216.999 356.8 217.299Z" fill="#263238"/>
<path d="M323.1 250.5C322.8 250.8 322.3 251 321.7 251L321.6 251.9H320.9L321 251C320.6 251 320.2 250.9 319.9 250.8C319.6 250.7 319.3 250.5 319.1 250.4L319.5 249.6C319.7 249.8 319.9 249.9 320.2 250C320.5 250.1 320.8 250.2 321.1 250.2L321.2 248.6C320.8 248.5 320.5 248.4 320.3 248.3C320.1 248.2 319.9 248 319.7 247.8C319.5 247.6 319.5 247.3 319.5 247C319.5 246.6 319.7 246.2 320.1 245.9C320.4 245.6 320.9 245.4 321.5 245.4L321.6 244.5H322.3L322.2 245.4C322.5 245.4 322.8 245.5 323.1 245.6C323.4 245.7 323.6 245.8 323.8 245.9L323.4 246.7C323 246.5 322.6 246.3 322.1 246.3L322 247.9C322.4 248 322.7 248.1 322.9 248.2C323.1 248.3 323.3 248.5 323.5 248.7C323.7 248.9 323.7 249.2 323.7 249.5C323.6 249.8 323.4 250.2 323.1 250.5ZM320.7 247.3C320.8 247.4 321 247.5 321.3 247.6L321.4 246.2C321.1 246.2 320.9 246.3 320.8 246.5C320.7 246.6 320.6 246.8 320.6 247C320.5 247.1 320.6 247.2 320.7 247.3ZM322.4 249.9C322.5 249.8 322.6 249.6 322.6 249.4C322.6 249.2 322.6 249.1 322.4 249C322.3 248.9 322.1 248.8 321.8 248.7L321.7 250.1C322 250.1 322.2 250 322.4 249.9Z" fill="#263238"/>
<path d="M330.9 248.5C331 248.7 331.1 249 331.1 249.3C331.1 249.6 330.9 249.9 330.7 250.2C330.5 250.5 330.2 250.7 329.8 250.8C329.4 250.9 329 251 328.6 251C328.1 251 327.7 250.9 327.4 250.8C327.1 250.7 326.8 250.5 326.7 250.2C326.5 249.9 326.5 249.6 326.5 249.3C326.5 249 326.6 248.7 326.8 248.5C327 248.3 327.2 248.1 327.5 248C327.3 247.9 327.1 247.7 327 247.5C326.9 247.3 326.9 247.1 326.9 246.8C326.9 246.5 327 246.2 327.2 246C327.4 245.8 327.7 245.6 328 245.5C328.3 245.4 328.7 245.3 329.1 245.3C329.5 245.3 329.9 245.4 330.2 245.5C330.5 245.6 330.7 245.8 330.9 246C331.1 246.2 331.1 246.5 331.1 246.8C331.1 247.1 331 247.3 330.9 247.5C330.8 247.7 330.6 247.9 330.3 248C330.5 248.1 330.7 248.3 330.9 248.5ZM329.6 250C329.8 249.8 330 249.6 330 249.3C330 249 329.9 248.8 329.7 248.6C329.5 248.4 329.2 248.4 328.8 248.4C328.4 248.4 328.1 248.5 327.9 248.6C327.7 248.8 327.5 249 327.5 249.3C327.5 249.6 327.6 249.8 327.8 250C328 250.2 328.3 250.2 328.7 250.2C329.1 250.2 329.4 250.1 329.6 250ZM328.2 246.3C328 246.4 327.9 246.6 327.9 246.9C327.9 247.1 328 247.3 328.1 247.5C328.3 247.6 328.5 247.7 328.9 247.7C329.2 247.7 329.5 247.6 329.7 247.5C329.9 247.4 330 247.2 330 246.9C330 246.6 329.9 246.5 329.8 246.3C329.6 246.2 329.4 246.1 329 246.1C328.7 246.1 328.5 246.1 328.2 246.3Z" fill="#263238"/>
<path d="M332.9 249.9C333 250 333.1 250.2 333 250.4C333 250.5 333 250.6 332.9 250.7C332.9 250.8 332.8 250.9 332.7 251.1L332.2 252.2H331.6L332 251C331.9 251 331.8 250.9 331.7 250.8C331.6 250.7 331.6 250.6 331.6 250.4C331.6 250.2 331.7 250 331.8 249.9C331.9 249.8 332.1 249.7 332.3 249.7C332.6 249.7 332.7 249.7 332.9 249.9Z" fill="#263238"/>
<path d="M335.9 245.3L335.4 250.9H334.4L334.8 246.2H333.6L333.7 245.3H335.9V245.3Z" fill="#263238"/>
<path d="M339 245.3L338.5 250.9H337.5L337.9 246.2H336.7L336.8 245.3H339V245.3Z" fill="#263238"/>
<path d="M342 245.3L341.5 250.9H340.5L340.9 246.2H339.7L339.8 245.3H342V245.3Z" fill="#263238"/>
<path d="M343.8 249.9C343.9 250 344 250.2 343.9 250.4C343.9 250.5 343.9 250.6 343.8 250.7C343.8 250.8 343.7 250.9 343.6 251.1L343.1 252.2H342.5L342.9 251C342.8 251 342.7 250.9 342.6 250.8C342.5 250.7 342.5 250.6 342.5 250.4C342.5 250.2 342.6 250 342.7 249.9C342.8 249.8 343 249.7 343.2 249.7C343.6 249.7 343.7 249.7 343.8 249.9Z" fill="#263238"/>
<path d="M348.8 250.1L348.7 251H344.6L344.7 250.3L347.1 248.2C347.4 248 347.6 247.8 347.7 247.6C347.8 247.4 347.9 247.2 347.9 247.1C347.9 246.8 347.9 246.6 347.7 246.5C347.5 246.4 347.3 246.3 346.9 246.3C346.3 246.3 345.9 246.5 345.5 246.9L344.8 246.3C345 246 345.4 245.8 345.7 245.6C346.1 245.4 346.5 245.4 347 245.4C347.6 245.4 348.1 245.5 348.4 245.8C348.7 246.1 348.9 246.5 348.8 247C348.8 247.3 348.7 247.6 348.5 247.9C348.3 248.2 348.1 248.5 347.7 248.8L346.1 250.2H348.8V250.1Z" fill="#263238"/>
<path d="M260.5 49.6002C260.1 49.4002 259.7 49.0002 259.5 48.6002C259.3 48.2002 259.2 47.7002 259.2 47.1002C259.2 46.5002 259.4 46.0002 259.7 45.6002C260 45.2002 260.4 44.8002 260.9 44.6002C261.4 44.4002 261.9 44.2002 262.5 44.2002C263 44.2002 263.4 44.3002 263.8 44.5002C264.2 44.7002 264.5 44.9002 264.7 45.2002L263.8 46.0002C263.5 45.6002 263 45.3002 262.4 45.3002C262.1 45.3002 261.7 45.4002 261.5 45.5002C261.2 45.7002 261 45.9002 260.8 46.1002C260.6 46.4002 260.5 46.7002 260.5 47.0002C260.5 47.3002 260.5 47.7002 260.6 47.9002C260.7 48.2002 260.9 48.4002 261.2 48.5002C261.5 48.7002 261.8 48.7002 262.1 48.7002C262.7 48.7002 263.1 48.5002 263.6 48.0002L264.4 48.8002C264.1 49.1002 263.8 49.4002 263.3 49.5002C262.9 49.7002 262.4 49.8002 262 49.8002C261.4 50.0002 260.9 49.8002 260.5 49.6002Z" fill="#263238"/>
<path d="M267.3 45.6004C267.6 45.5004 267.9 45.4004 268.2 45.4004L268.1 46.6004C268 46.6004 267.9 46.6004 267.8 46.6004C267.4 46.6004 267.2 46.7004 266.9 46.9004C266.7 47.1004 266.6 47.4004 266.5 47.8004L266.3 49.8004H265.1L265.5 45.5004H266.7V46.1004C266.8 45.9004 267 45.8004 267.3 45.6004Z" fill="#263238"/>
<path d="M273.3 45.6006L271 50.2006C270.8 50.7006 270.5 51.0006 270.2 51.2006C269.9 51.4006 269.5 51.5006 269.1 51.5006C268.9 51.5006 268.7 51.5006 268.4 51.4006C268.2 51.3006 268 51.2006 267.9 51.1006L268.4 50.2006C268.5 50.3006 268.6 50.4006 268.7 50.4006C268.8 50.4006 268.9 50.5006 269.1 50.5006C269.3 50.5006 269.4 50.5006 269.5 50.4006C269.6 50.3006 269.7 50.2006 269.8 50.0006L268.3 45.7006H269.6L270.6 48.6006L272.1 45.7006H273.3V45.6006Z" fill="#263238"/>
<path d="M277.5 45.8008C277.8 46.0008 278 46.2008 278.2 46.6008C278.4 46.9008 278.4 47.3008 278.4 47.8008C278.4 48.2008 278.2 48.6008 278 49.0008C277.8 49.3008 277.5 49.6008 277.2 49.8008C276.9 50.0008 276.5 50.1008 276.1 50.1008C275.6 50.1008 275.1 49.9008 274.8 49.6008L274.6 51.6008H273.4L273.9 45.7008H275.1V46.2008C275.4 45.8008 275.9 45.6008 276.5 45.6008C276.8 45.5008 277.2 45.6008 277.5 45.8008ZM276.7 48.6008C276.9 48.4008 277.1 48.1008 277.1 47.7008C277.1 47.3008 277.1 47.0008 276.9 46.8008C276.7 46.6008 276.5 46.5008 276.1 46.5008C275.8 46.5008 275.5 46.6008 275.3 46.8008C275.1 47.0008 274.9 47.3008 274.9 47.7008C274.9 48.1008 274.9 48.4008 275.1 48.6008C275.3 48.8008 275.5 48.9008 275.9 48.9008C276.2 48.9008 276.5 48.8008 276.7 48.6008Z" fill="#263238"/>
<path d="M281.8 49.6C281.7 49.7 281.5 49.8 281.3 49.8C281.1 49.8 280.9 49.9 280.7 49.9C280.2 49.9 279.8 49.8 279.5 49.5C279.2 49.2 279.1 48.9 279.2 48.3L279.4 46.5H278.7L278.8 45.5H279.5L279.6 44.5H280.8L280.7 45.5H281.8L281.7 46.5H280.6L280.4 48.3C280.4 48.5 280.4 48.6 280.5 48.7C280.6 48.8 280.7 48.8 280.9 48.8C281.1 48.8 281.3 48.7 281.4 48.6L281.8 49.6Z" fill="#263238"/>
<path d="M283.2 49.6C282.9 49.4 282.6 49.1 282.4 48.8C282.2 48.5 282.2 48.1 282.2 47.7C282.2 47.3 282.4 46.9 282.6 46.6C282.8 46.3 283.1 46 283.5 45.8C283.9 45.6 284.3 45.5 284.7 45.5C285.2 45.5 285.6 45.6 285.9 45.8C286.2 46 286.5 46.3 286.7 46.6C286.9 46.9 286.9 47.3 286.9 47.7C286.9 48.1 286.7 48.5 286.5 48.8C286.3 49.1 286 49.4 285.6 49.6C285.2 49.8 284.8 49.9 284.4 49.9C283.9 49.9 283.5 49.8 283.2 49.6ZM285.3 48.6C285.5 48.4 285.7 48.1 285.7 47.7C285.7 47.3 285.7 47 285.5 46.8C285.3 46.6 285.1 46.5 284.7 46.5C284.3 46.5 284.1 46.6 283.9 46.8C283.7 47 283.5 47.3 283.5 47.7C283.5 48.1 283.5 48.4 283.7 48.6C283.9 48.8 284.1 48.9 284.5 48.9C284.8 48.9 285.1 48.8 285.3 48.6Z" fill="#263238"/>
<path d="M294.4 44.8008C294.8 45.1008 294.9 45.6008 294.9 46.2008C294.8 46.8008 294.6 47.3008 294.2 47.6008C293.8 47.9008 293.2 48.1008 292.5 48.1008H291L290.8 49.9008H290.2L290.7 44.3008H292.8C293.5 44.3008 294 44.4008 294.4 44.8008ZM293.8 47.2008C294.1 47.0008 294.3 46.6008 294.3 46.2008C294.3 45.7008 294.2 45.4008 294 45.2008C293.7 45.0008 293.3 44.8008 292.8 44.8008H291.3L291 47.6008H292.5C293 47.6008 293.4 47.4008 293.8 47.2008Z" fill="#263238"/>
<path d="M296.3 49.6C296 49.4 295.8 49.2 295.6 48.8C295.4 48.5 295.4 48.1 295.4 47.7C295.4 47.3 295.6 46.9 295.8 46.6C296 46.3 296.3 46 296.6 45.8C296.9 45.6 297.3 45.5 297.7 45.5C298.1 45.5 298.5 45.6 298.8 45.8C299.1 46 299.3 46.2 299.5 46.6C299.7 46.9 299.7 47.3 299.7 47.7C299.7 48.1 299.5 48.5 299.3 48.8C299.1 49.1 298.8 49.4 298.5 49.6C298.2 49.8 297.8 49.9 297.4 49.9C297 49.9 296.7 49.8 296.3 49.6ZM298.3 49.2C298.5 49.1 298.8 48.9 298.9 48.6C299.1 48.3 299.1 48.1 299.2 47.7C299.2 47.4 299.2 47.1 299.1 46.8C299 46.5 298.8 46.4 298.6 46.2C298.4 46.1 298.1 46 297.8 46C297.5 46 297.2 46.1 297 46.2C296.8 46.3 296.5 46.5 296.4 46.8C296.2 47.1 296.1 47.3 296.1 47.7C296.1 48 296.1 48.3 296.2 48.6C296.3 48.9 296.5 49 296.7 49.2C296.9 49.3 297.2 49.4 297.5 49.4C297.8 49.4 298 49.3 298.3 49.2Z" fill="#263238"/>
<path d="M302.2 45.8006C302.5 45.7006 302.8 45.6006 303.2 45.6006V46.2006H303.1C302.7 46.2006 302.3 46.3006 302 46.6006C301.7 46.9006 301.6 47.3006 301.5 47.7006L301.3 49.8006H300.7L301.1 45.6006H301.6L301.5 46.4006C301.7 46.2006 301.9 46.0006 302.2 45.8006Z" fill="#263238"/>
<path d="M306.3 49.6008C306.2 49.7008 306 49.8008 305.9 49.8008C305.7 49.9008 305.6 49.9008 305.4 49.9008C305 49.9008 304.7 49.8008 304.5 49.6008C304.3 49.4008 304.2 49.1008 304.3 48.7008L304.5 46.2008H303.7V45.7008H304.5L304.6 44.8008H305.2L305.1 45.7008H306.4V46.2008H305L304.8 48.7008C304.8 49.0008 304.8 49.1008 304.9 49.3008C305 49.4008 305.2 49.5008 305.4 49.5008C305.5 49.5008 305.6 49.5008 305.7 49.4008C305.8 49.4008 305.9 49.3008 306 49.2008L306.3 49.6008Z" fill="#263238"/>
<path d="M308.6 44.6C308.5 44.7 308.4 44.9 308.4 45.2V45.7H309.7V46.2H308.4L308.1 49.9H307.5L307.8 46.2H307V45.7H307.8V45.2C307.8 44.8 308 44.5 308.2 44.3C308.4 44.1 308.8 44 309.2 44C309.4 44 309.5 44 309.7 44.1C309.8 44.1 310 44.2 310.1 44.3L309.9 44.7C309.7 44.6 309.5 44.5 309.3 44.5C308.9 44.4 308.7 44.4 308.6 44.6Z" fill="#263238"/>
<path d="M310.6 49.6C310.3 49.4 310.1 49.2 309.9 48.8C309.7 48.5 309.7 48.1 309.7 47.7C309.7 47.3 309.9 46.9 310.1 46.6C310.3 46.3 310.6 46 310.9 45.8C311.2 45.6 311.6 45.5 312 45.5C312.4 45.5 312.8 45.6 313.1 45.8C313.4 46 313.6 46.2 313.8 46.6C314 46.9 314 47.3 314 47.7C314 48.1 313.8 48.5 313.6 48.8C313.4 49.1 313.1 49.4 312.8 49.6C312.5 49.8 312.1 49.9 311.7 49.9C311.2 49.9 310.9 49.8 310.6 49.6ZM312.5 49.2C312.7 49.1 313 48.9 313.1 48.6C313.3 48.3 313.3 48.1 313.4 47.7C313.4 47.4 313.4 47.1 313.3 46.8C313.2 46.5 313 46.4 312.8 46.2C312.6 46.1 312.3 46 312 46C311.7 46 311.4 46.1 311.2 46.2C311 46.3 310.7 46.5 310.6 46.8C310.4 47.1 310.3 47.3 310.3 47.7C310.3 48 310.3 48.3 310.4 48.6C310.5 48.9 310.7 49 310.9 49.2C311.1 49.3 311.4 49.4 311.7 49.4C312 49.4 312.3 49.3 312.5 49.2Z" fill="#263238"/>
<path d="M315.5 43.9004H316.1L315.6 49.8004H315L315.5 43.9004Z" fill="#263238"/>
<path d="M317.6 44.6004C317.5 44.5004 317.5 44.4004 317.5 44.3004C317.5 44.2004 317.6 44.1004 317.6 44.0004C317.7 43.9004 317.8 43.9004 317.9 43.9004C318 43.9004 318.1 43.9004 318.2 44.0004C318.3 44.1004 318.3 44.2004 318.3 44.3004C318.3 44.4004 318.2 44.5004 318.2 44.6004C318.1 44.7004 318 44.7004 317.9 44.7004C317.7 44.7004 317.6 44.7004 317.6 44.6004ZM317.5 45.6004H318.1L317.7 49.8004H317.1L317.5 45.6004Z" fill="#263238"/>
<path d="M319.9 49.6C319.6 49.4 319.4 49.2 319.2 48.8C319 48.5 319 48.1 319 47.7C319 47.3 319.2 46.9 319.4 46.6C319.6 46.3 319.9 46 320.2 45.8C320.5 45.6 320.9 45.5 321.3 45.5C321.7 45.5 322.1 45.6 322.4 45.8C322.7 46 322.9 46.2 323.1 46.6C323.3 46.9 323.3 47.3 323.3 47.7C323.3 48.1 323.1 48.5 322.9 48.8C322.7 49.1 322.4 49.4 322.1 49.6C321.8 49.8 321.4 49.9 321 49.9C320.6 49.9 320.2 49.8 319.9 49.6ZM321.8 49.2C322 49.1 322.3 48.9 322.4 48.6C322.6 48.3 322.6 48.1 322.7 47.7C322.7 47.4 322.7 47.1 322.6 46.8C322.5 46.5 322.3 46.4 322.1 46.2C321.9 46.1 321.6 46 321.3 46C321 46 320.7 46.1 320.5 46.2C320.3 46.3 320 46.5 319.9 46.8C319.7 47.1 319.6 47.3 319.6 47.7C319.6 48 319.6 48.3 319.7 48.6C319.8 48.9 320 49 320.2 49.2C320.4 49.3 320.7 49.4 321 49.4C321.3 49.4 321.6 49.3 321.8 49.2Z" fill="#263238"/>
<path d="M334.4 70.9998C334.1 70.8998 333.9 70.6998 333.8 70.4998L334.4 69.8998C334.6 70.2998 334.9 70.4998 335.3 70.4998C335.8 70.4998 336.1 70.1998 336.1 69.5998L336.3 67.0998H334.6L334.7 66.2998H337.4L337.1 69.4998C337 70.0998 336.9 70.4998 336.6 70.7998C336.3 71.0998 335.9 71.1998 335.3 71.1998C334.9 71.1998 334.7 71.0998 334.4 70.9998Z" fill="#263238"/>
<path d="M342 67.4004L341.7 71.1004H340.9V70.6004C340.7 70.8004 340.6 70.9004 340.3 71.0004C340.1 71.1004 339.9 71.1004 339.6 71.1004C339.1 71.1004 338.7 71.0004 338.5 70.7004C338.2 70.4004 338.1 70.0004 338.2 69.5004L338.4 67.4004H339.3L339.1 69.4004C339.1 69.7004 339.1 70.0004 339.3 70.2004C339.4 70.4004 339.6 70.4004 339.9 70.4004C340.2 70.4004 340.5 70.3004 340.7 70.1004C340.9 69.9004 341 69.6004 341 69.3004L341.2 67.4004H342Z" fill="#263238"/>
<path d="M346.4 67.6996C346.7 67.9996 346.8 68.3996 346.7 68.8996L346.5 70.9996H345.6L345.8 68.9996C345.8 68.6996 345.8 68.3996 345.6 68.2996C345.5 68.0996 345.2 68.0996 345 68.0996C344.7 68.0996 344.4 68.1996 344.2 68.3996C344 68.5996 343.9 68.8996 343.8 69.1996L343.6 71.0996H342.7L343 67.3996H343.8V67.8996C344 67.6996 344.2 67.5996 344.4 67.4996C344.6 67.3996 344.9 67.3996 345.2 67.3996C345.8 67.2996 346.2 67.4996 346.4 67.6996Z" fill="#263238"/>
<path d="M351.4 66.2002L351 71.1002H350.1L350.5 67.0002H349.5L349.6 66.2002H351.4V66.2002Z" fill="#263238"/>
<path d="M355.3 68.6998C355.5 68.9998 355.6 69.2998 355.6 69.5998C355.6 69.8998 355.5 70.0998 355.3 70.3998C355.1 70.5998 354.9 70.7998 354.6 70.9998C354.3 71.0998 353.9 71.1998 353.5 71.1998C353.1 71.1998 352.8 71.1998 352.5 70.9998C352.2 70.8998 351.9 70.7998 351.7 70.5998L352.2 69.8998C352.4 69.9998 352.6 70.1998 352.8 70.2998C353 70.3998 353.3 70.3998 353.6 70.3998C353.9 70.3998 354.2 70.2998 354.4 70.1998C354.6 70.0998 354.7 69.8998 354.7 69.6998C354.7 69.4998 354.6 69.2998 354.5 69.1998C354.3 69.0998 354.1 68.9998 353.7 68.9998H353.3L353.4 68.3998L354.6 67.0998H352.4L352.5 66.2998H355.8L355.7 66.8998L354.4 68.2998C354.8 68.2998 355.1 68.4998 355.3 68.6998Z" fill="#263238"/>
<path d="M357.1 70.2C357.2 70.3 357.2 70.4 357.2 70.6C357.2 70.7 357.2 70.8 357.1 70.8C357.1 70.9 357 71 356.9 71.2L356.5 72.2H356L356.4 71.1C356.3 71.1 356.2 71 356.2 70.9C356.1 70.8 356.1 70.7 356.1 70.6C356.1 70.4 356.2 70.3 356.3 70.2C356.4 70.1 356.6 70 356.7 70C356.9 70 357 70.1 357.1 70.2Z" fill="#263238"/>
<path d="M363.3 70.3002L363.2 71.1002H359.6L359.7 70.5002L361.8 68.7002C362 68.5002 362.2 68.3002 362.3 68.2002C362.4 68.0002 362.4 67.9002 362.5 67.7002C362.5 67.5002 362.5 67.3002 362.3 67.2002C362.2 67.1002 361.9 67.0002 361.6 67.0002C361.1 67.0002 360.7 67.2002 360.4 67.5002L359.8 67.0002C360 66.7002 360.3 66.5002 360.6 66.4002C360.9 66.3002 361.3 66.2002 361.7 66.2002C362.2 66.2002 362.6 66.3002 362.9 66.6002C363.2 66.9002 363.3 67.2002 363.3 67.6002C363.3 67.9002 363.2 68.1002 363.1 68.3002C363 68.5002 362.7 68.8002 362.4 69.1002L361 70.3002H363.3V70.3002Z" fill="#263238"/>
<path d="M364.8 70.9C364.5 70.7 364.3 70.4 364.1 70C364 69.6 363.9 69.2 364 68.6C364 68.1 364.2 67.6 364.4 67.2C364.6 66.8 364.9 66.5 365.2 66.3C365.5 66.1 365.9 66 366.3 66C366.7 66 367 66.1 367.3 66.3C367.6 66.5 367.8 66.8 368 67.2C368.1 67.6 368.2 68 368.1 68.6C368.1 69.1 367.9 69.6 367.7 70C367.5 70.4 367.2 70.7 366.9 70.9C366.6 71.1 366.2 71.2 365.8 71.2C365.4 71.2 365.1 71.1 364.8 70.9ZM366.7 70C366.9 69.7 367.1 69.3 367.1 68.7C367.2 68.1 367.1 67.7 366.9 67.4C366.7 67.1 366.5 67 366.1 67C365.8 67 365.5 67.1 365.2 67.4C365 67.7 364.8 68.1 364.8 68.7C364.7 69.3 364.8 69.7 365 70C365.2 70.3 365.4 70.4 365.8 70.4C366.2 70.4 366.5 70.3 366.7 70Z" fill="#263238"/>
<path d="M372.1 70.3002L372 71.1002H368.4L368.5 70.5002L370.6 68.7002C370.8 68.5002 371 68.3002 371.1 68.2002C371.2 68.0002 371.2 67.9002 371.3 67.7002C371.3 67.5002 371.3 67.3002 371.1 67.2002C371 67.1002 370.7 67.0002 370.4 67.0002C369.9 67.0002 369.5 67.2002 369.2 67.5002L368.6 67.0002C368.8 66.7002 369.1 66.5002 369.4 66.4002C369.7 66.3002 370.1 66.2002 370.5 66.2002C371 66.2002 371.4 66.3002 371.7 66.6002C372 66.9002 372.1 67.2002 372.1 67.6002C372.1 67.9002 372 68.1002 371.9 68.3002C371.8 68.5002 371.5 68.8002 371.2 69.1002L369.8 70.3002H372.1V70.3002Z" fill="#263238"/>
<path d="M374.6 66.2002L374.2 71.1002H373.3L373.7 67.0002H372.7L372.8 66.2002H374.6V66.2002Z" fill="#263238"/>
<path d="M376.9 43.8004H371.2L371.3 42.9004H377L376.9 43.8004Z" fill="#263238"/>
<path d="M376.5 48.8004H370.8V47.9004H376.6L376.5 48.8004Z" fill="#263238"/>
<path d="M376.7 46.3004H371L371.1 45.4004H376.8L376.7 46.3004Z" fill="#263238"/>
<path d="M313 159.9C312.9 160.9 312 161.7 311.1 161.7C310.1 161.7 309.4 160.9 309.5 159.9C309.6 158.9 310.5 158.1 311.4 158.1C312.3 158.1 313.1 158.9 313 159.9Z" fill="#1D84C6"/>
<path opacity="0.5" d="M298.064 161.135C298.822 160.409 298.91 159.271 298.261 158.593C297.611 157.915 296.471 157.953 295.713 158.679C294.955 159.405 294.867 160.543 295.516 161.221C296.165 161.899 297.306 161.861 298.064 161.135Z" fill="white"/>
<path opacity="0.5" d="M305.8 159.9C305.7 160.9 304.8 161.7 303.9 161.7C302.9 161.7 302.2 160.9 302.3 159.9C302.4 158.9 303.3 158.1 304.2 158.1C305.1 158.1 305.9 158.9 305.8 159.9Z" fill="white"/>
<path opacity="0.5" d="M319.554 161.11C320.312 160.384 320.4 159.246 319.751 158.568C319.102 157.889 317.961 157.928 317.203 158.654C316.445 159.379 316.357 160.518 317.006 161.196C317.656 161.874 318.796 161.835 319.554 161.11Z" fill="white"/>
<path d="M253.9 209.4C249.6 209.4 245.9 212.8 245.5 217.1C245.1 221.4 248.3 224.8 252.5 224.8C256.8 224.8 260.5 221.4 260.9 217.1C261.3 212.8 258.2 209.4 253.9 209.4ZM252.9 221.3L250.1 217.1L253.2 218.2L256.5 217.1L252.9 221.3ZM253.2 217.1L250.1 216L253.6 212.3L256.5 216L253.2 217.1Z" fill="#1CB393"/>
<path d="M256.6 178.5C252.3 178.5 248.6 181.9 248.2 186.2C247.8 190.5 251 193.9 255.2 193.9C259.5 193.9 263.2 190.5 263.6 186.2C264 181.9 260.9 178.5 256.6 178.5ZM259 185C258.9 185.3 258.8 185.5 258.6 185.7C258.4 185.9 258.2 186.1 257.9 186.2C258.2 186.3 258.4 186.5 258.5 186.7C258.6 186.9 258.6 187.2 258.5 187.6C258.4 188.1 258 188.5 257.6 188.7C257.1 189 256.5 189.1 255.8 189.1H252.8L254.5 183.5H257.4C258.1 183.5 258.6 183.6 258.9 183.9C259.1 184.2 259.1 184.6 259 185Z" fill="#1CB393"/>
<path d="M256.7 184.7H255.6L255.3 185.8H256.4C256.9 185.8 257.3 185.6 257.4 185.3C257.4 184.9 257.2 184.7 256.7 184.7Z" fill="#1CB393"/>
<path d="M256.3 186.9H255L254.7 188H256C256.6 188 256.9 187.8 257 187.4C257.1 187.1 256.8 186.9 256.3 186.9Z" fill="#1CB393"/>
<path d="M251.2 240.3C246.9 240.3 243.2 243.7 242.8 248C242.4 252.3 245.6 255.7 249.8 255.7C254.1 255.7 257.8 252.3 258.2 248C258.6 243.7 255.5 240.3 251.2 240.3ZM252.6 250.6H248.3L250 245H251.6L250.3 249.3H253L252.6 250.6Z" fill="#1CB393"/>
<g opacity="0.4">
<path opacity="0.4" d="M242.3 294.3H248.6L323.2 16.7002H309L234.8 292.4C237.1 293.6 239.6 294.3 242.3 294.3Z" fill="white"/>
<path opacity="0.4" d="M386.2 10.1C383.4 7 379.3 5 374.6 5H346.8C345 5 343.3 6.4 342.9 8.2L342.7 9.1C341.8 13.5 337.7 16.8 333.3 16.8H333.1L258.5 294.4H309.8L386.2 10.1Z" fill="white"/>
</g>
<path d="M208.9 297.799L212 309.099L220.3 307.899L218.9 296.199L208.9 297.799Z" fill="#B97964"/>
<path d="M221.4 306.099C221.3 306.099 221.2 305.999 221.2 305.999C221.2 305.899 221.2 305.799 221.3 305.799C221.4 305.699 224 303.499 225.4 303.599C225.7 303.599 225.9 303.699 226.1 303.899C226.3 304.099 226.4 304.499 226.3 304.699C226 305.199 225 305.599 224 305.799C223.1 305.999 222.3 306.099 221.4 306.099ZM222 305.699C223.6 305.599 225.7 305.199 225.9 304.599C225.9 304.499 226 304.399 225.8 304.199C225.7 304.099 225.5 303.999 225.4 303.999C225.3 303.999 225.1 303.999 225 303.999C223.9 304.399 222.9 304.899 222 305.699Z" fill="#1D84C6"/>
<path d="M221.3 306.099C221.2 306.099 221.2 305.999 221.2 305.899C221.2 305.799 221 303.499 221.9 302.499C222.2 302.199 222.5 301.999 222.9 301.999C223.4 301.999 223.7 302.199 223.7 302.399C224.1 303.299 222.4 305.499 221.5 306.099H221.4C221.4 306.099 221.3 306.099 221.3 306.099ZM222.8 302.299C222.6 302.299 222.3 302.499 222.2 302.699C221.7 303.499 221.5 304.499 221.6 305.399C222.5 304.599 223.5 302.899 223.4 302.399C223.4 302.399 223.3 302.199 223 302.299H222.8Z" fill="#1D84C6"/>
<path d="M220.3 305.099L211.3 306.799C211 306.899 210.7 307.199 210.7 307.499L210.5 315.199C210.5 315.899 211 316.399 211.7 316.499C211.8 316.499 211.9 316.499 212 316.499C215.2 315.799 218.1 315.099 222.2 314.299C227 313.399 225.9 314.199 231.5 313.199C234.9 312.599 234.8 308.599 233.3 308.699C226.6 309.099 225.5 307.299 222.5 305.399C221.8 304.999 221 304.899 220.3 305.099Z" fill="#263238"/>
<path d="M168.5 296.199L167.2 307.999H158.8L158.5 296.199H168.5Z" fill="#B97964"/>
<path d="M167.9 307.799C167.8 307.799 167.8 307.699 167.7 307.599C167.7 307.499 167.7 307.399 167.8 307.399C167.9 307.299 170.8 305.599 172.2 305.999C172.5 306.099 172.7 306.199 172.8 306.499C173 306.799 173 307.099 172.8 307.399C172.5 307.899 171.4 308.099 170.3 308.099C169.6 307.999 168.8 307.899 167.9 307.799ZM168.6 307.499C170.2 307.699 172.3 307.599 172.7 307.099C172.8 306.999 172.8 306.899 172.7 306.699C172.6 306.599 172.5 306.499 172.3 306.399C172.2 306.399 172 306.399 171.9 306.399C170.7 306.499 169.6 306.899 168.6 307.499Z" fill="#1D84C6"/>
<path d="M167.8 307.799C167.7 307.799 167.7 307.699 167.7 307.599C167.7 307.499 167.9 305.199 169 304.299C169.3 303.999 169.7 303.899 170.1 303.899C170.6 303.899 170.8 304.199 170.9 304.399C171.1 305.299 169.1 307.199 168.1 307.699H168C167.9 307.799 167.9 307.799 167.8 307.799ZM170 304.299C169.7 304.299 169.5 304.399 169.3 304.599C168.7 305.299 168.3 306.199 168.2 307.199C169.2 306.599 170.5 305.099 170.5 304.499C170.5 304.399 170.5 304.299 170.1 304.299H170Z" fill="#1D84C6"/>
<path d="M167 306.6L157.8 306.7C157.5 306.7 157.2 307 157.1 307.3L155.6 314.8C155.5 315.5 155.9 316.1 156.5 316.3C156.6 316.3 156.7 316.3 156.8 316.3C160.1 316.2 163.1 316 167.2 315.9C172.1 315.8 170.8 316.4 176.6 316.4C180 316.4 180.6 312.5 179.2 312.3C172.5 311.6 171.8 309.6 169.2 307.2C168.5 306.8 167.8 306.6 167 306.6Z" fill="#263238"/>
<path d="M179.2 166.6L188.4 199.7L189.2 202.3C192 211.3 193.7 220.6 194 230C194.1 233.8 194.4 237.9 194.9 242C198.1 269.7 209.5 301.5 209.5 301.5L220.1 300.3L202.5 126.1H175C175 126.1 166.8 156.2 179.2 166.6Z" fill="#263238"/>
<path opacity="0.6" d="M188.6 200.5L182.7 180.1L186.4 161.4L186.8 156.4C186.8 156.3 191.5 173.5 188.6 200.5Z" fill="black"/>
<path d="M191 126.1C191 126.1 184 191 180.6 220C177.2 249 168.6 301.4 168.6 301.4H157.8C157.8 301.4 155.5 264.8 158.3 238.1C158.8 233.1 159.4 228.6 160.1 224.9C161.2 218.9 161.5 212.8 161.2 206.8C161 203 160.8 198.4 160.6 193.6C160 179.9 160.9 164.2 160.9 157.7C160.9 141.8 164 126.1 164 126.1H191V126.1Z" fill="#263238"/>
<path d="M187.8 63.7994C182.8 62.5994 181.5 59.2994 181.9 55.8994C182 54.9994 182.1 54.1994 182.3 53.3994L176 48.1994L171.4 44.3994C172.6 49.9994 174 59.5994 170.2 63.2994C174.4 65.4994 178.7 67.4994 183 69.2994C187.8 66.6994 187.8 63.7994 187.8 63.7994Z" fill="#B97964"/>
<path opacity="0.2" d="M182.3 53.3994C182.1 54.1994 182 55.0994 181.9 55.8994C181.9 56.0994 181.9 56.3994 181.8 56.5994C178.1 55.6994 172.9 52.3994 172.4 48.3994C172.4 47.3994 172.6 46.3994 172.8 45.3994L176.1 48.0994L182.3 53.3994Z" fill="black"/>
<path d="M169.6 36.6992C169.6 36.6992 166.8 39.1992 164.9 39.1992C164.9 39.1992 166 43.3992 168.9 42.3992C171.8 41.3992 169.6 36.6992 169.6 36.6992Z" fill="#263238"/>
<path d="M193.1 30.7994C193.1 30.7994 191.9 34.5994 196.4 34.9994C196.4 34.9994 194.2 39.4994 190.5 36.0994C186.8 32.6994 188.4 28.8994 188.4 28.8994L191.7 30.2994L193.1 30.7994Z" fill="#263238"/>
<path opacity="0.5" d="M193.1 30.7994C193.1 30.7994 191.9 34.5994 196.4 34.9994C196.4 34.9994 194.2 39.4994 190.5 36.0994C186.8 32.6994 188.4 28.8994 188.4 28.8994L191.7 30.2994L193.1 30.7994Z" fill="black"/>
<path d="M171.9 33.0998C170.9 40.5998 170 44.9998 173 49.5998C177.5 56.4998 187.2 55.0998 190.4 47.9998C193.3 41.6998 194.3 30.3998 187.6 25.8998C183.1 22.6998 176.8 23.7998 173.6 28.2998C172.7 29.6998 172.1 31.2998 171.9 33.0998Z" fill="#B97964"/>
<path d="M182.8 37.5996C182.7 38.1996 182.9 38.7996 183.3 38.7996C183.7 38.8996 184.1 38.4996 184.3 37.7996C184.5 37.1996 184.2 36.5996 183.8 36.5996C183.3 36.5996 182.9 36.9996 182.8 37.5996Z" fill="#2E353A"/>
<path d="M189.8 38.9991C189.7 39.5991 189.9 40.1991 190.3 40.1991C190.7 40.2991 191.1 39.8991 191.3 39.1991C191.5 38.5991 191.2 37.9991 190.8 37.9991C190.4 37.8991 189.9 38.3991 189.8 38.9991Z" fill="#2E353A"/>
<path d="M187 38.8994C187.3 40.5994 187.9 42.2994 188.6 43.8994C187.8 44.2994 186.8 44.2994 186 43.8994L187 38.8994Z" fill="#A24E3F"/>
<path d="M184.9 47.9992C183.5 47.8992 182.1 47.2992 181.2 46.1992C181.1 46.0992 181.1 45.9992 181.2 45.8992C181.3 45.7992 181.4 45.7992 181.4 45.8992C182.4 47.0992 184 47.6992 185.5 47.5992C185.6 47.5992 185.7 47.6992 185.7 47.7992C185.7 47.8992 185.6 47.9992 185.5 47.9992C185.4 47.9992 185.2 47.9992 184.9 47.9992Z" fill="#2E353A"/>
<path d="M181.8 34.2993L181.7 34.1993C181.6 33.9993 181.7 33.7993 181.9 33.6993C182.9 33.1993 184.1 33.1993 185.1 33.7993C185.3 33.8993 185.3 34.0993 185.2 34.2993C185.1 34.4993 184.9 34.4993 184.7 34.3993C183.9 33.8993 183 33.8993 182.1 34.2993C182.1 34.3993 181.9 34.3993 181.8 34.2993Z" fill="#2E353A"/>
<path d="M193.5 36.0991C193.4 36.0991 193.3 36.0991 193.2 35.9991C192.5 35.3991 191.5 35.1991 190.6 35.3991C190.4 35.4991 190.2 35.3991 190.1 35.1991C190 34.9991 190.1 34.7991 190.3 34.6991C191.4 34.3991 192.6 34.6991 193.5 35.4991C193.7 35.5991 193.7 35.7991 193.6 35.9991C193.6 36.0991 193.5 36.0991 193.5 36.0991Z" fill="#2E353A"/>
<path d="M172.9 39.4995C172.9 39.4995 176.5 38.1995 176.7 30.2995C176.7 30.2995 181.6 32.2995 187.2 29.3995C187.2 29.3995 196.3 35.0995 196.8 27.6995C196.8 27.6995 194 28.4995 192.9 25.8995C192.9 25.8995 195.3 23.7995 193.6 21.0995C193.6 21.0995 189.8 23.7995 187.2 21.4995C184.5 19.2995 172.6 16.8995 171.3 24.3995C171.3 24.3995 166.7 23.9995 167 29.3995C167.2 34.7995 166.5 35.9995 164.8 35.5995C164.8 35.5995 166.6 40.1995 169.6 37.7995C169.6 37.7995 171.2 42.4995 167.1 43.0995C167.1 43.0995 172.6 48.8995 172.9 39.4995Z" fill="#263238"/>
<path d="M172.1 24.6993C172.1 24.6993 170.6 22.7993 171.7 20.3993C171.8 20.0993 171.5 19.7993 171.2 19.9993C169 21.9993 166.1 25.1993 172.1 24.6993Z" fill="#263238"/>
<path d="M168.7 40.7992C169.1 42.5992 170.2 44.2992 171.6 45.3992C173.5 46.7992 174.9 45.0992 174.8 42.6992C174.7 40.4992 173.6 37.1992 171.5 36.7992C169.4 36.2992 168.1 38.4992 168.7 40.7992Z" fill="#B97964"/>
<path d="M202.5 65.7997V125.8L162.6 126.5L156.2 67.7997C155.9 65.1997 158.2 62.7997 161.3 62.6997L197 61.1997C200 60.9997 202.5 63.0997 202.5 65.7997Z" fill="#1D84C6"/>
<path opacity="0.5" d="M202.5 65.7997V125.8L162.6 126.5L156.2 67.7997C155.9 65.1997 158.2 62.7997 161.3 62.6997L197 61.1997C200 60.9997 202.5 63.0997 202.5 65.7997Z" fill="white"/>
<path d="M184.5 60.2998L179.5 62.4998L170.7 60.6998L169.1 63.4998L174.3 68.6998C174.9 69.2998 175.8 69.1998 176.3 68.5998L179.4 64.5998L184.9 68.0998C185.8 68.6998 187.1 67.9998 187 66.8998L186.6 61.9998L184.5 60.2998Z" fill="#1D84C6"/>
<path opacity="0.8" d="M184.5 60.2998L179.5 62.4998L170.7 60.6998L169.1 63.4998L174.3 68.6998C174.9 69.2998 175.8 69.1998 176.3 68.5998L179.4 64.5998L184.9 68.0998C185.8 68.6998 187.1 67.9998 187 66.8998L186.6 61.9998L184.5 60.2998Z" fill="white"/>
<path d="M220.6 297L221.1 302.5L209.5 304.8L207.8 299.5L220.6 297Z" fill="#263238"/>
<path opacity="0.3" d="M220.6 297L221.1 302.5L209.5 304.8L207.8 299.5L220.6 297Z" fill="white"/>
<path d="M170 298.899L169.1 304.399H157L156.7 298.899H170Z" fill="#263238"/>
<path opacity="0.3" d="M170 298.899L169.1 304.399H157L156.7 298.899H170Z" fill="white"/>
<path d="M169.5 61.4992C169.5 61.4992 179 83.3992 180.7 91.1992C182.4 98.5992 182.6 117.399 182.6 126.799C182.6 129.699 179.6 131.799 176.4 131.099L160.1 127.999C160.1 127.999 158.5 105.599 157.6 98.1992C156.6 89.8992 152.7 68.3992 154.3 64.7992C156.4 59.9992 169.5 61.4992 169.5 61.4992Z" fill="#1D84C6"/>
<path opacity="0.1" d="M156.4 94.7996C163.4 83.6996 162.5 74.0996 162.5 74.0996L159.3 73.0996L154.7 80.1996C155.1 84.7996 155.8 90.0996 156.4 94.7996Z" fill="black"/>
<path d="M161.5 64.8999C160.3 62.8999 157.5 62.1999 155.4 63.4999C152.3 65.2999 147.8 69.5999 143 79.7999C134.2 98.3999 134.6 110.8 142.4 119.9C150.2 129 162.9 138.7 162.9 138.7L168.5 132.3C168.5 132.3 149.3 115.3 149.5 104.6C149.7 95.8999 156.2 85.4999 160 79.7999C162.2 76.3999 165.5 71.6999 161.5 64.8999Z" fill="#1D84C6"/>
<path d="M223.1 76.9992L226.1 70.1992L232.7 61.1992L237.3 64.8992L235.2 69.9992C234.9 70.6992 234.3 71.2992 233.4 71.5992L230.3 72.7992L228.5 79.1992L223.1 76.9992Z" fill="#B97964"/>
<path d="M203.1 63.3993C207.5 69.5993 211.8 89.6993 215.3 89.6993C218 89.6993 223.6 73.5993 223.6 73.5993L230.3 76.4993C230.3 76.4993 226 103.299 216.9 104.999C207.8 106.699 199.7 84.3993 198.4 75.5993C197.8 72.2993 198.4 56.6993 203.1 63.3993Z" fill="#1D84C6"/>
<path opacity="0.1" d="M200.6 70.0996L198.2 74.5996C198.2 74.9996 198.3 75.3996 198.3 75.5996C199.2 81.7996 203.5 94.6996 209.2 101.2C204.6 91.4996 203.5 72.4996 203.5 72.4996L200.6 70.0996Z" fill="black"/>
<path d="M186.7 60.8992C186.7 60.8992 188 82.8992 188.5 90.3992C189 97.9992 190.9 116.799 191.8 126.299C192.1 129.199 195.5 131.099 198.6 130.099L204.6 128.499L204 93.7992C204 93.7992 204.2 66.1992 203 63.3992C201 58.4992 186.7 60.8992 186.7 60.8992Z" fill="#1D84C6"/>
<path d="M229.5 69.6994H225.4C224.8 69.6994 224.4 69.0994 224.6 68.5994L232.2 54.8994C232.5 54.2994 233.3 53.8994 234 53.8994H238.1C238.7 53.8994 239.1 54.4994 238.9 54.9994L231.3 68.6994C231 69.2994 230.3 69.6994 229.5 69.6994Z" fill="#1D84C6"/>
<path opacity="0.2" d="M239 54.399C238.9 54.099 238.6 53.999 238.2 53.999H234.1C233.3 53.999 232.6 54.399 232.3 54.999L226.6 65.299L239 54.399Z" fill="white"/>
<path d="M238.2 53.999H238.1C238.1 54.099 238.1 54.099 238 54.199L230.4 67.899C230.1 68.499 229.3 68.899 228.6 68.899H224.7C224.6 69.299 225 69.799 225.5 69.799H229.6C230.4 69.799 231.1 69.399 231.4 68.799L239 55.099C239.2 54.599 238.8 53.999 238.2 53.999Z" fill="#1D84C6"/>
<path opacity="0.2" d="M238.2 53.999H238.1C238.1 54.099 238.1 54.099 238 54.199L230.4 67.899C230.1 68.499 229.3 68.899 228.6 68.899H224.7C224.6 69.299 225 69.799 225.5 69.799H229.6C230.4 69.799 231.1 69.399 231.4 68.799L239 55.099C239.2 54.599 238.8 53.999 238.2 53.999Z" fill="black"/>
<path d="M236.6 64.399L234.8 62.399C234.4 61.899 233.6 61.999 233.2 62.499L231.7 64.899C231.6 65.099 231.5 65.299 231.6 65.399L231.8 71.899L234.3 71.499L236.9 67.199C237.5 66.399 237.3 65.199 236.6 64.399Z" fill="#B97964"/>
<path d="M220.6 37.3998C226.841 37.3998 231.9 32.3406 231.9 26.0998C231.9 19.859 226.841 14.7998 220.6 14.7998C214.359 14.7998 209.3 19.859 209.3 26.0998C209.3 32.3406 214.359 37.3998 220.6 37.3998Z" fill="#D5B742"/>
<path d="M222 37.3998C228.241 37.3998 233.3 32.3406 233.3 26.0998C233.3 19.859 228.241 14.7998 222 14.7998C215.759 14.7998 210.7 19.859 210.7 26.0998C210.7 32.3406 215.759 37.3998 222 37.3998Z" fill="#D5B742"/>
<path opacity="0.3" d="M222 37.3998C228.241 37.3998 233.3 32.3406 233.3 26.0998C233.3 19.859 228.241 14.7998 222 14.7998C215.759 14.7998 210.7 19.859 210.7 26.0998C210.7 32.3406 215.759 37.3998 222 37.3998Z" fill="white"/>
<path d="M222 34.5996C226.694 34.5996 230.5 30.794 230.5 26.0996C230.5 21.4052 226.694 17.5996 222 17.5996C217.305 17.5996 213.5 21.4052 213.5 26.0996C213.5 30.794 217.305 34.5996 222 34.5996Z" fill="white"/>
<path d="M226.6 26.6996C226.3 26.2996 225.9 25.9996 225.3 25.7996C225.7 25.5996 226 25.2996 226.2 24.8996C226.4 24.4996 226.5 24.0996 226.5 23.6996C226.5 22.8996 226.2 22.2996 225.6 21.8996C225.1 21.5996 224.5 21.3996 223.7 21.2996V20.5996H222.6V21.1996H221.5V20.5996H220.4V21.1996H218.1V30.7996H220.4V31.4996H221.5V30.7996H222.6V31.4996H223.7V30.7996C224.7 30.6996 225.4 30.4996 226 30.0996C226.7 29.5996 227 28.9996 227 28.1996C227.1 27.5996 226.9 27.0996 226.6 26.6996ZM220.5 22.8996H222.7C223.2 22.8996 223.7 22.9996 223.9 23.1996C224.2 23.3996 224.3 23.6996 224.3 23.9996C224.3 24.3996 224.2 24.6996 223.9 24.8996C223.6 25.0996 223.2 25.1996 222.7 25.1996H220.5V22.8996ZM224.4 28.8996C224.1 29.0996 223.7 29.1996 223.1 29.1996H220.5V26.7996H223.1C224.3 26.7996 224.9 27.1996 224.9 27.9996C224.8 28.3996 224.7 28.6996 224.4 28.8996Z" fill="#D5B742"/>
<path d="M132.9 63.6002C140.466 63.6002 146.6 57.4665 146.6 49.9002C146.6 42.3339 140.466 36.2002 132.9 36.2002C125.334 36.2002 119.2 42.3339 119.2 49.9002C119.2 57.4665 125.334 63.6002 132.9 63.6002Z" fill="#1D84C6"/>
<path d="M134.5 63.6002C142.067 63.6002 148.2 57.4665 148.2 49.9002C148.2 42.3339 142.067 36.2002 134.5 36.2002C126.934 36.2002 120.8 42.3339 120.8 49.9002C120.8 57.4665 126.934 63.6002 134.5 63.6002Z" fill="#1D84C6"/>
<path opacity="0.3" d="M134.5 63.6002C142.067 63.6002 148.2 57.4665 148.2 49.9002C148.2 42.3339 142.067 36.2002 134.5 36.2002C126.934 36.2002 120.8 42.3339 120.8 49.9002C120.8 57.4665 126.934 63.6002 134.5 63.6002Z" fill="white"/>
<path d="M141.811 57.2128C145.833 53.1905 145.833 46.6689 141.811 42.6466C137.788 38.6242 131.267 38.6242 127.244 42.6466C123.222 46.6689 123.222 53.1905 127.244 57.2128C131.267 61.2352 137.788 61.2352 141.811 57.2128Z" fill="white"/>
<path d="M140.1 50.6998C139.7 50.1998 139.2 49.8998 138.5 49.5998C139 49.2998 139.4 48.9998 139.6 48.5998C139.9 48.1998 140 47.6998 140 47.0998C140 46.1998 139.6 45.3998 138.9 44.8998C138.3 44.4998 137.6 44.1998 136.7 44.0998V43.2998H135.4V44.0998H134.1V43.2998H132.8V44.0998H130V55.6998H132.8V56.4998H134.1V55.6998H135.4V56.4998H136.7V55.5998C137.9 55.4998 138.8 55.2998 139.5 54.7998C140.3 54.2998 140.7 53.4998 140.7 52.4998C140.7 51.7998 140.5 51.1998 140.1 50.6998ZM132.7 46.0998H135.4C136.1 46.0998 136.6 46.1998 136.9 46.3998C137.2 46.5998 137.4 46.9998 137.4 47.3998C137.4 47.7998 137.2 48.1998 136.9 48.3998C136.6 48.5998 136.1 48.6998 135.4 48.6998H132.7V46.0998ZM137.5 53.2998C137.1 53.4998 136.6 53.5998 135.9 53.5998H132.8V50.6998H135.9C137.3 50.6998 138 51.1998 138 52.0998C138 52.6998 137.8 53.0998 137.5 53.2998Z" fill="#1D84C6"/>
<path d="M144.8 22C150.875 22 155.8 17.0751 155.8 11C155.8 4.92487 150.875 0 144.8 0C138.725 0 133.8 4.92487 133.8 11C133.8 17.0751 138.725 22 144.8 22Z" fill="#1CB393"/>
<path d="M146.1 22C152.175 22 157.1 17.0751 157.1 11C157.1 4.92487 152.175 0 146.1 0C140.025 0 135.1 4.92487 135.1 11C135.1 17.0751 140.025 22 146.1 22Z" fill="#1CB393"/>
<path opacity="0.3" d="M146.1 22C152.175 22 157.1 17.0751 157.1 11C157.1 4.92487 152.175 0 146.1 0C140.025 0 135.1 4.92487 135.1 11C135.1 17.0751 140.025 22 146.1 22Z" fill="white"/>
<path d="M149.243 18.5636C153.427 16.8305 155.414 12.0336 153.68 7.8495C151.947 3.6654 147.15 1.67851 142.966 3.41166C138.782 5.14481 136.795 9.94169 138.529 14.1258C140.262 18.3099 145.059 20.2968 149.243 18.5636Z" fill="white"/>
<path d="M150.6 11.6002C150.3 11.2002 149.9 10.9002 149.3 10.8002C149.7 10.6002 150 10.3002 150.2 10.0002C150.4 9.6002 150.5 9.2002 150.5 8.8002C150.5 8.1002 150.2 7.5002 149.6 7.0002C149.1 6.7002 148.5 6.5002 147.8 6.4002V5.7002H146.8V6.3002H145.8V5.7002H144.8V6.3002H142.5V15.6002H144.8V16.3002H145.8V15.6002H146.8V16.3002H147.8V15.6002C148.7 15.5002 149.5 15.3002 150 15.0002C150.6 14.6002 151 13.9002 151 13.1002C151 12.5002 150.9 12.0002 150.6 11.6002ZM144.6 7.9002H146.7C147.2 7.9002 147.6 8.0002 147.9 8.2002C148.2 8.4002 148.3 8.7002 148.3 9.0002C148.3 9.3002 148.2 9.6002 147.9 9.8002C147.6 10.0002 147.2 10.1002 146.7 10.1002H144.6V7.9002ZM148.4 13.7002C148.1 13.9002 147.7 14.0002 147.1 14.0002H144.6V11.7002H147.1C148.2 11.7002 148.8 12.1002 148.8 12.9002C148.8 13.3002 148.7 13.6002 148.4 13.7002Z" fill="#1CB393"/>
</svg>
