<svg width="96" height="88" viewBox="0 0 96 88" fill="none" xmlns="http://www.w3.org/2000/svg">
<g clip-path="url(#clip0_2399_13372)">
<path d="M66.8102 39.079C66.6382 38.9137 66.4303 38.7839 66.2002 38.6983C65.9701 38.6127 65.7231 38.5732 65.4754 38.5823C65.2277 38.5915 64.9848 38.6491 64.7629 38.7515C64.5409 38.8538 64.3448 38.9985 64.1876 39.176C61.058 42.6246 57.9634 44.347 53.1983 44.674V45.309C53.2022 45.3984 53.1676 45.4856 53.1022 45.5516C53.0369 45.6175 52.9459 45.6567 52.8494 45.6607H52.6709V43.4706C52.6748 43.3811 52.6402 43.2939 52.5748 43.228C52.5095 43.1621 52.4185 43.1228 52.322 43.1189H50.0297C49.9336 43.1233 49.8432 43.1628 49.7782 43.2286C49.7133 43.2945 49.679 43.3815 49.6829 43.4706V45.7823C49.679 45.8715 49.7133 45.9584 49.7782 46.0243C49.8432 46.0901 49.9336 46.1296 50.0297 46.134H51.1769V49.1435C51.2501 49.0852 51.3399 49.0476 51.4355 49.0351H53.3193C54.6717 49.0351 55.7676 50.1396 55.7676 51.5065V53.4076C55.772 53.5533 55.7145 53.6947 55.6074 53.8014C55.5003 53.9081 55.3521 53.9715 55.195 53.978H55.1129V52.1757C55.1129 50.8126 54.0171 49.7043 52.6647 49.7043C51.3123 49.7043 50.2165 50.8107 50.2165 52.1757V54.0768C50.2115 54.2226 50.2688 54.3643 50.3761 54.4711C50.4833 54.578 50.6317 54.6412 50.789 54.6472H51.1851V58.5026C60.5224 58.3378 68.1838 54.9596 74.1693 48.3678C74.4984 47.9833 74.6647 47.5008 74.6371 47.0108C74.6095 46.5208 74.3899 46.057 74.0194 45.7063L66.8102 39.079Z" fill="url(#paint0_linear_2399_13372)"/>
<path d="M45.1742 2.73758H47.2551C47.2985 2.73587 47.3411 2.72625 47.3805 2.70927C47.4199 2.69229 47.4552 2.66827 47.4846 2.63861C47.5139 2.60894 47.5367 2.57421 47.5515 2.53638C47.5664 2.49856 47.573 2.4584 47.5711 2.4182V0.326989C47.5742 0.286168 47.5684 0.245194 47.554 0.206489C47.5397 0.167785 47.5171 0.132136 47.4877 0.101651C47.4582 0.0711652 47.4224 0.0464623 47.3825 0.0290027C47.3425 0.011543 47.2992 0.0016811 47.2551 0L45.1742 0C45.0864 0.00346029 45.0036 0.039006 44.944 0.0988606C44.8844 0.158715 44.8528 0.238006 44.8561 0.319385V2.4106C44.8534 2.45151 44.8594 2.49253 44.874 2.53124C44.8886 2.56996 44.9113 2.60559 44.941 2.63604C44.9706 2.6665 45.0065 2.69117 45.0465 2.7086C45.0866 2.72604 45.13 2.73589 45.1742 2.73758Z" fill="url(#paint1_linear_2399_13372)"/>
<path d="M28.1886 12.8781H30.2695C30.3555 12.8723 30.4356 12.8357 30.4931 12.7761C30.5505 12.7165 30.5807 12.6385 30.5773 12.5587V10.4561C30.5792 10.4159 30.5726 10.3757 30.5577 10.3379C30.5429 10.3001 30.5201 10.2654 30.4908 10.2357C30.4614 10.206 30.426 10.182 30.3866 10.165C30.3473 10.1481 30.3046 10.1384 30.2612 10.1367H28.1886C28.1452 10.1384 28.1025 10.1481 28.0632 10.165C28.0238 10.182 27.9884 10.206 27.959 10.2357C27.9297 10.2654 27.9069 10.3001 27.8921 10.3379C27.8772 10.3757 27.8706 10.4159 27.8725 10.4561V12.5473C27.8692 12.5884 27.8748 12.6297 27.8889 12.6687C27.9031 12.7077 27.9256 12.7437 27.9551 12.7746C27.9845 12.8054 28.0204 12.8305 28.0605 12.8483C28.1006 12.866 28.1441 12.8762 28.1886 12.8781Z" fill="url(#paint2_linear_2399_13372)"/>
<path d="M35.2539 17.353H37.3347C37.3781 17.3513 37.4208 17.3417 37.4601 17.3247C37.4995 17.3077 37.5349 17.2837 37.5643 17.2541C37.5936 17.2244 37.6164 17.1896 37.6312 17.1518C37.6461 17.114 37.6527 17.0738 37.6508 17.0336V14.9424C37.6527 14.9022 37.6461 14.8621 37.6312 14.8242C37.6164 14.7864 37.5936 14.7517 37.5643 14.722C37.5349 14.6924 37.4995 14.6683 37.4601 14.6514C37.4208 14.6344 37.3781 14.6248 37.3347 14.623H35.2539C35.2105 14.6248 35.1678 14.6344 35.1285 14.6514C35.0891 14.6683 35.0537 14.6924 35.0243 14.722C34.995 14.7517 34.9722 14.7864 34.9574 14.8242C34.9425 14.8621 34.9359 14.9022 34.9378 14.9424V17.0336C34.9359 17.0738 34.9425 17.114 34.9574 17.1518C34.9722 17.1896 34.995 17.2244 35.0243 17.2541C35.0537 17.2837 35.0891 17.3077 35.1285 17.3247C35.1678 17.3417 35.2105 17.3513 35.2539 17.353Z" fill="url(#paint3_linear_2399_13372)"/>
<path d="M30.6058 45.5068H27.9195C27.8065 45.5113 27.6999 45.5569 27.6231 45.6339C27.5462 45.7108 27.5052 45.8127 27.5091 45.9175V48.6284C27.5047 48.7335 27.5454 48.836 27.6223 48.9133C27.6992 48.9906 27.8061 49.0365 27.9195 49.041H30.6058C30.6621 49.039 30.7173 49.0268 30.7685 49.005C30.8196 48.9831 30.8655 48.9522 30.9037 48.9138C30.9418 48.8755 30.9714 48.8305 30.9907 48.7816C31.0101 48.7326 31.0187 48.6805 31.0162 48.6284V45.9175C31.0184 45.8655 31.0096 45.8137 30.9901 45.765C30.9707 45.7162 30.9411 45.6715 30.9029 45.6333C30.8648 45.5952 30.819 45.5644 30.768 45.5427C30.717 45.521 30.6619 45.5088 30.6058 45.5068Z" fill="url(#paint4_linear_2399_13372)"/>
<path d="M32.219 25.8703V27.7011C32.2174 27.7363 32.2232 27.7715 32.2363 27.8046C32.2493 27.8377 32.2693 27.8681 32.295 27.894C32.3207 27.92 32.3517 27.941 32.3862 27.9558C32.4207 27.9707 32.4581 27.9791 32.4961 27.9806H34.3102C34.3867 27.9771 34.4588 27.9458 34.5106 27.8935C34.5625 27.8412 34.59 27.7721 34.5872 27.7011V25.8703C34.5894 25.7997 34.5617 25.731 34.5099 25.6791C34.4581 25.6272 34.3864 25.5962 34.3102 25.5928H32.4961C32.4197 25.5957 32.3476 25.6266 32.2957 25.6786C32.2438 25.7306 32.2162 25.7995 32.219 25.8703Z" fill="url(#paint5_linear_2399_13372)"/>
<path d="M38.7532 39.4274V40.9254C38.7518 40.9541 38.7565 40.9828 38.7671 41.0098C38.7777 41.0368 38.794 41.0617 38.815 41.0829C38.8359 41.104 38.8612 41.1212 38.8893 41.1333C38.9175 41.1455 38.9479 41.1523 38.9789 41.1535H40.4647C40.4957 41.1523 40.5261 41.1455 40.5542 41.1333C40.5823 41.1212 40.6076 41.104 40.6286 41.0829C40.6496 41.0617 40.6658 41.0368 40.6764 41.0098C40.687 40.9828 40.6918 40.9541 40.6904 40.9254V39.4274C40.6918 39.3986 40.687 39.3699 40.6764 39.3429C40.6658 39.3159 40.6496 39.2911 40.6286 39.2699C40.6076 39.2487 40.5823 39.2316 40.5542 39.2194C40.5261 39.2073 40.4957 39.2004 40.4647 39.1992H38.9789C38.9479 39.2004 38.9175 39.2073 38.8893 39.2194C38.8612 39.2316 38.8359 39.2487 38.815 39.2699C38.794 39.2911 38.7777 39.3159 38.7671 39.3429C38.7565 39.3699 38.7518 39.3986 38.7532 39.4274Z" fill="url(#paint6_linear_2399_13372)"/>
<path d="M24.8701 27.8433V25.1343C24.8723 25.0823 24.8635 25.0305 24.844 24.9817C24.8246 24.933 24.7949 24.8883 24.7568 24.8501C24.7187 24.812 24.6728 24.7812 24.6219 24.7595C24.5709 24.7378 24.5158 24.7256 24.4597 24.7236H21.7775C21.7215 24.7256 21.6664 24.7378 21.6154 24.7595C21.5644 24.7812 21.5185 24.812 21.4804 24.8501C21.4423 24.8883 21.4127 24.933 21.3932 24.9817C21.3738 25.0305 21.3649 25.0823 21.3671 25.1343V27.8433C21.3646 27.8954 21.3733 27.9475 21.3926 27.9964C21.4119 28.0454 21.4415 28.0904 21.4797 28.1287C21.5178 28.1671 21.5638 28.198 21.6149 28.2199C21.666 28.2417 21.7213 28.2539 21.7775 28.2559H24.4618C24.5178 28.2537 24.5729 28.2413 24.6238 28.2193C24.6747 28.1974 24.7204 28.1664 24.7583 28.1281C24.7962 28.0897 24.8256 28.0449 24.8448 27.996C24.864 27.9472 24.8726 27.8953 24.8701 27.8433Z" fill="url(#paint7_linear_2399_13372)"/>
<path d="M48.8413 8.47135H51.1828V14.4066C51.3141 14.4066 51.4291 14.3724 51.5624 14.3724C56.4876 14.3724 60.4339 16.4465 63.4239 19.7734C63.5835 19.9562 63.784 20.1047 64.0116 20.2087C64.2392 20.3126 64.4885 20.3696 64.7422 20.3755C64.9959 20.3815 65.2479 20.3364 65.4809 20.2432C65.7139 20.1501 65.9223 20.0112 66.0917 19.8361L73.2476 12.7697C73.5861 12.4292 73.7873 11.9909 73.8172 11.5288C73.8471 11.0667 73.7039 10.6092 73.4118 10.2337C67.8791 3.55891 60.0338 1.05896 51.1766 0.929688V2.04944H53.8444C54.0328 2.05734 54.2102 2.13393 54.3378 2.2625C54.4654 2.39107 54.533 2.56119 54.5258 2.73573V7.24895C54.5265 7.40175 54.4691 7.54991 54.3636 7.66742C54.2582 7.78492 54.1114 7.86426 53.9491 7.89152C53.9491 7.85159 53.9922 7.82688 53.9922 7.78506V5.16534C53.9922 3.74142 52.8471 2.58745 51.4352 2.58745H50.7149C49.303 2.58745 48.1579 3.74142 48.1579 5.16534V7.79456C48.1534 7.96781 48.2225 8.13576 48.3503 8.26232C48.4781 8.38888 48.6544 8.46393 48.8413 8.47135Z" fill="url(#paint8_linear_2399_13372)"/>
<path d="M36.0339 13.2355H43.2493C43.5529 13.2231 43.8388 13.0997 44.0443 12.8922C44.2497 12.6848 44.3579 12.4103 44.3451 12.129V4.85351C44.3579 4.57223 44.2497 4.29774 44.0443 4.0903C43.8388 3.88285 43.5529 3.75941 43.2493 3.74707H36.0339C35.7303 3.75941 35.4444 3.88285 35.2389 4.0903C35.0334 4.29774 34.9252 4.57223 34.938 4.85351V12.129C34.9252 12.4103 35.0334 12.6848 35.2389 12.8922C35.4444 13.0997 35.7303 13.2231 36.0339 13.2355Z" fill="url(#paint9_linear_2399_13372)"/>
<path d="M49.3688 12.9978V10.0188C49.3738 9.90346 49.3294 9.79094 49.2452 9.70582C49.161 9.6207 49.0439 9.56988 48.9194 9.56445H45.9684C45.8439 9.56988 45.7268 9.6207 45.6426 9.70582C45.5584 9.79094 45.5139 9.90346 45.5189 10.0188V12.9978C45.5139 13.1132 45.5584 13.2257 45.6426 13.3108C45.7268 13.396 45.8439 13.4468 45.9684 13.4522H48.9214C49.0455 13.4463 49.1621 13.3953 49.2459 13.3102C49.3297 13.2251 49.3738 13.1129 49.3688 12.9978Z" fill="url(#paint10_linear_2399_13372)"/>
<path d="M44.9833 19.7311C45.0379 19.7294 45.0917 19.7177 45.1413 19.6965C45.191 19.6753 45.2355 19.6451 45.2724 19.6078C45.3093 19.5704 45.3378 19.5266 45.3562 19.4789C45.3745 19.4312 45.3824 19.3806 45.3794 19.33V16.6951C45.3824 16.6445 45.3745 16.5939 45.3562 16.5462C45.3378 16.4985 45.3093 16.4547 45.2724 16.4173C45.2355 16.38 45.191 16.3498 45.1413 16.3286C45.0917 16.3074 45.0379 16.2956 44.9833 16.2939H42.3689C42.3142 16.2956 42.2605 16.3074 42.2109 16.3286C42.1612 16.3498 42.1166 16.38 42.0797 16.4173C42.0429 16.4547 42.0144 16.4985 41.996 16.5462C41.9777 16.5939 41.9698 16.6445 41.9728 16.6951V19.33C41.9698 19.3806 41.9777 19.4312 41.996 19.4789C42.0144 19.5266 42.0429 19.5704 42.0797 19.6078C42.1166 19.6451 42.1612 19.6753 42.2109 19.6965C42.2605 19.7177 42.3142 19.7294 42.3689 19.7311H44.9833Z" fill="url(#paint11_linear_2399_13372)"/>
<path d="M44.7371 40.9177H47.3495C47.4043 40.9162 47.4583 40.9046 47.5081 40.8835C47.558 40.8624 47.6029 40.8323 47.64 40.7949C47.6771 40.7575 47.7057 40.7136 47.7242 40.6658C47.7427 40.618 47.7507 40.5672 47.7476 40.5165V37.8816C47.7507 37.8309 47.7427 37.7801 47.7242 37.7323C47.7057 37.6845 47.6771 37.6406 47.64 37.6032C47.6029 37.5658 47.558 37.5357 47.5081 37.5146C47.4583 37.4935 47.4043 37.4819 47.3495 37.4805H44.7371C44.6823 37.4819 44.6284 37.4935 44.5785 37.5146C44.5286 37.5357 44.4838 37.5658 44.4467 37.6032C44.4096 37.6406 44.3809 37.6845 44.3624 37.7323C44.3439 37.7801 44.336 37.8309 44.339 37.8816V40.5165C44.336 40.5672 44.3439 40.618 44.3624 40.6658C44.3809 40.7136 44.4096 40.7575 44.4467 40.7949C44.4838 40.8323 44.5286 40.8624 44.5785 40.8835C44.6284 40.9046 44.6823 40.9162 44.7371 40.9177Z" fill="url(#paint12_linear_2399_13372)"/>
<path d="M49.5164 56.0137H46.904C46.8494 56.0151 46.7956 56.0267 46.7459 56.0476C46.6961 56.0686 46.6514 56.0985 46.6143 56.1357C46.5772 56.1729 46.5486 56.2166 46.5299 56.2642C46.5113 56.3118 46.5031 56.3623 46.5059 56.4129V59.0497C46.5031 59.1003 46.5113 59.1508 46.5299 59.1984C46.5486 59.246 46.5772 59.2897 46.6143 59.3269C46.6514 59.3641 46.6961 59.394 46.7459 59.415C46.7956 59.436 46.8494 59.4475 46.904 59.449H49.5164C49.571 59.4475 49.6248 59.436 49.6745 59.415C49.7243 59.394 49.769 59.3641 49.8061 59.3269C49.8432 59.2897 49.8719 59.246 49.8905 59.1984C49.9091 59.1508 49.9173 59.1003 49.9145 59.0497V56.4129C49.9173 56.3623 49.9091 56.3118 49.8905 56.2642C49.8719 56.2166 49.8432 56.1729 49.8061 56.1357C49.769 56.0985 49.7243 56.0686 49.6745 56.0476C49.6248 56.0267 49.571 56.0151 49.5164 56.0137Z" fill="url(#paint13_linear_2399_13372)"/>
<path d="M40.2533 23.4598V19.9238C40.2594 19.7872 40.2069 19.654 40.1073 19.5532C40.0077 19.4523 39.8691 19.3922 39.7218 19.3857H36.2167C36.0689 19.3917 35.9298 19.4516 35.8298 19.5525C35.7297 19.6534 35.677 19.7869 35.6831 19.9238V23.4598C35.6801 23.5275 35.6915 23.595 35.7167 23.6586C35.7419 23.7222 35.7803 23.7806 35.8299 23.8303C35.8794 23.8801 35.9391 23.9204 36.0055 23.9488C36.0718 23.9772 36.1436 23.9932 36.2167 23.9959H39.7218C39.8689 23.99 40.0076 23.9302 40.1072 23.8297C40.2069 23.7292 40.2594 23.5962 40.2533 23.4598Z" fill="url(#paint14_linear_2399_13372)"/>
<path d="M42.221 35.6912V32.1552C42.2272 32.0187 42.1747 31.8854 42.0751 31.7846C41.9755 31.6838 41.8369 31.6236 41.6895 31.6172H38.1844C38.0367 31.6231 37.8976 31.6831 37.7975 31.784C37.6975 31.8848 37.6448 32.0183 37.6509 32.1552V35.6912C37.6478 35.7589 37.6593 35.8265 37.6844 35.8901C37.7096 35.9536 37.7481 36.012 37.7977 36.0618C37.8472 36.1116 37.9069 36.1518 37.9732 36.1802C38.0396 36.2087 38.1114 36.2247 38.1844 36.2274H41.6895C41.8367 36.2214 41.9753 36.1616 42.075 36.0611C42.1746 35.9606 42.2272 35.8276 42.221 35.6912Z" fill="url(#paint15_linear_2399_13372)"/>
<path d="M25.2006 23.9957H31.3981C31.6589 23.9848 31.9044 23.8787 32.0809 23.7006C32.2574 23.5224 32.3506 23.2867 32.34 23.0451V16.7943C32.3506 16.5527 32.2574 16.317 32.0809 16.1389C31.9044 15.9607 31.6589 15.8546 31.3981 15.8438H25.2006C24.9398 15.8546 24.6943 15.9607 24.5177 16.1389C24.3412 16.317 24.248 16.5527 24.2586 16.7943V23.0451C24.248 23.2867 24.3412 23.5224 24.5177 23.7006C24.6943 23.8787 24.9398 23.9848 25.2006 23.9957Z" fill="url(#paint16_linear_2399_13372)"/>
<path d="M46.5062 45.1496C46.5062 44.3891 45.8905 43.7637 45.1312 43.7637H36.0874C35.3281 43.7637 34.7124 44.3834 34.7124 45.1496V54.2749C34.7124 55.0353 35.3281 55.6608 36.0874 55.6608H45.1312C45.8905 55.6608 46.5062 55.041 46.5062 54.2749V45.1496Z" fill="url(#paint17_linear_2399_13372)"/>
<path d="M34.9319 31.3038C34.9319 30.5433 34.3162 29.9141 33.5549 29.9141H24.4966C23.7353 29.9141 23.1196 30.5357 23.1196 31.3038V40.4386C23.1196 41.199 23.7353 41.8283 24.4966 41.8283H33.5549C34.3142 41.8283 34.9319 41.2066 34.9319 40.4386V31.3038Z" fill="url(#paint18_linear_2399_13372)"/>
<path d="M12.9945 75.2188H20.727C20.7818 75.2202 20.8357 75.2318 20.8856 75.2529C20.9355 75.274 20.9803 75.3041 21.0174 75.3415C21.0546 75.3789 21.0832 75.4228 21.1017 75.4706C21.1202 75.5184 21.1281 75.5692 21.1251 75.6199V77.4811C21.1281 77.5318 21.1202 77.5825 21.1017 77.6304C21.0832 77.6782 21.0546 77.7221 21.0174 77.7595C20.9803 77.7969 20.9355 77.827 20.8856 77.8481C20.8357 77.8691 20.7818 77.8808 20.727 77.8822H16.1404C16.0856 77.8836 16.0317 77.8952 15.9818 77.9163C15.9319 77.9374 15.8871 77.9675 15.85 78.0049C15.8128 78.0423 15.7842 78.0862 15.7657 78.134C15.7472 78.1818 15.7393 78.2326 15.7423 78.2833V79.2757C15.7393 79.3264 15.7472 79.3772 15.7657 79.425C15.7842 79.4728 15.8128 79.5167 15.85 79.5541C15.8871 79.5915 15.9319 79.6216 15.9818 79.6427C16.0317 79.6638 16.0856 79.6754 16.1404 79.6768H19.7686C19.8234 79.6783 19.8774 79.6899 19.9273 79.711C19.9772 79.732 20.022 79.7622 20.0591 79.7996C20.0962 79.8369 20.1248 79.8808 20.1433 79.9287C20.1618 79.9765 20.1698 80.0273 20.1667 80.078V81.789C20.1698 81.8397 20.1618 81.8904 20.1433 81.9383C20.1248 81.9861 20.0962 82.03 20.0591 82.0674C20.022 82.1048 19.9772 82.1349 19.9273 82.156C19.8774 82.177 19.8234 82.1886 19.7686 82.1901H16.1404C16.0856 82.1915 16.0317 82.2031 15.9818 82.2242C15.9319 82.2453 15.8871 82.2754 15.85 82.3128C15.8128 82.3502 15.7842 82.3941 15.7657 82.4419C15.7472 82.4897 15.7393 82.5405 15.7423 82.5912V83.7737C15.7393 83.8244 15.7472 83.8752 15.7657 83.923C15.7842 83.9708 15.8128 84.0147 15.85 84.0521C15.8871 84.0895 15.9319 84.1196 15.9818 84.1407C16.0317 84.1618 16.0856 84.1734 16.1404 84.1748H21.1005C21.1551 84.1763 21.2089 84.1878 21.2586 84.2088C21.3084 84.2298 21.3531 84.2597 21.3902 84.2969C21.4272 84.3341 21.4559 84.3778 21.4746 84.4254C21.4932 84.473 21.5014 84.5235 21.4986 84.5741V86.4353C21.5016 86.486 21.4937 86.5367 21.4752 86.5846C21.4567 86.6324 21.428 86.6763 21.3909 86.7137C21.3538 86.7511 21.309 86.7812 21.2591 86.8023C21.2092 86.8233 21.1553 86.8349 21.1005 86.8364H12.9945C12.9396 86.8349 12.8857 86.8233 12.8358 86.8023C12.7859 86.7812 12.7411 86.7511 12.704 86.7137C12.6669 86.6763 12.6382 86.6324 12.6197 86.5846C12.6013 86.5367 12.5933 86.486 12.5963 86.4353V75.6199C12.5933 75.5692 12.6013 75.5184 12.6197 75.4706C12.6382 75.4228 12.6669 75.3789 12.704 75.3415C12.7411 75.3041 12.7859 75.274 12.8358 75.2529C12.8857 75.2318 12.9396 75.2202 12.9945 75.2188Z" fill="#1D84C6"/>
<path d="M23.5301 75.2188H25.7875C25.8524 75.2199 25.9161 75.2359 25.9727 75.2654C26.0293 75.295 26.077 75.3371 26.1117 75.3879L29.82 80.6654C29.868 80.7336 29.9393 80.7849 30.0224 80.8112C30.1056 80.8375 30.1959 80.8374 30.2789 80.8107C30.3619 80.784 30.433 80.7324 30.4807 80.6641C30.5284 80.5957 30.5501 80.5146 30.5423 80.4335V75.6199C30.5393 75.5693 30.5472 75.5187 30.5656 75.471C30.5839 75.4233 30.6124 75.3795 30.6493 75.3421C30.6862 75.3048 30.7308 75.2746 30.7804 75.2534C30.8301 75.2322 30.8838 75.2204 30.9384 75.2188H33.245C33.2998 75.2202 33.3538 75.2318 33.4037 75.2529C33.4536 75.274 33.4984 75.3041 33.5355 75.3415C33.5726 75.3789 33.6012 75.4228 33.6197 75.4706C33.6382 75.5184 33.6462 75.5692 33.6432 75.6199V86.4238C33.6462 86.4746 33.6382 86.5253 33.6197 86.5731C33.6012 86.621 33.5726 86.6649 33.5355 86.7022C33.4984 86.7396 33.4536 86.7698 33.4037 86.7908C33.3538 86.8119 33.2998 86.8235 33.245 86.825H31.1723C31.1079 86.8241 31.0446 86.8083 30.9884 86.7791C30.9321 86.7499 30.8846 86.7082 30.8502 86.6577L26.9634 81.1768C26.9153 81.1084 26.8438 81.0569 26.7604 81.0306C26.677 81.0042 26.5865 81.0046 26.5033 81.0315C26.4201 81.0584 26.349 81.1104 26.3015 81.1791C26.254 81.2479 26.2327 81.3294 26.241 81.4106V86.4238C26.244 86.4744 26.2361 86.525 26.2178 86.5727C26.1994 86.6204 26.1709 86.6642 26.1341 86.7016C26.0972 86.7389 26.0526 86.7691 26.0029 86.7903C25.9533 86.8115 25.8996 86.8233 25.8449 86.825H23.5301C23.4753 86.8235 23.4214 86.8119 23.3715 86.7908C23.3216 86.7698 23.2768 86.7396 23.2396 86.7022C23.2025 86.6649 23.1739 86.621 23.1554 86.5731C23.1369 86.5253 23.1289 86.4746 23.132 86.4238V75.6199C23.1289 75.5692 23.1369 75.5184 23.1554 75.4706C23.1739 75.4228 23.2025 75.3789 23.2396 75.3415C23.2768 75.3041 23.3216 75.274 23.3715 75.2529C23.4214 75.2318 23.4753 75.2202 23.5301 75.2188Z" fill="#1D84C6"/>
<path d="M85.8787 75.2188H88.1361C88.2011 75.2199 88.2647 75.2359 88.3213 75.2654C88.3779 75.295 88.4257 75.3371 88.4603 75.3879L92.1686 80.6654C92.2167 80.7336 92.2879 80.7849 92.3711 80.8112C92.4542 80.8375 92.5445 80.8374 92.6275 80.8107C92.7106 80.784 92.7816 80.7324 92.8293 80.6641C92.8771 80.5957 92.8987 80.5146 92.891 80.4335V75.6199C92.8879 75.5692 92.8959 75.5184 92.9144 75.4706C92.9329 75.4228 92.9615 75.3789 92.9986 75.3415C93.0357 75.3041 93.0806 75.274 93.1304 75.2529C93.1803 75.2318 93.2343 75.2202 93.2891 75.2188H95.6019C95.6567 75.2202 95.7106 75.2318 95.7605 75.2529C95.8104 75.274 95.8552 75.3041 95.8923 75.3415C95.9294 75.3789 95.9581 75.4228 95.9766 75.4706C95.9951 75.5184 96.003 75.5692 96 75.6199V86.4238C96.003 86.4746 95.9951 86.5253 95.9766 86.5731C95.9581 86.621 95.9294 86.6649 95.8923 86.7022C95.8552 86.7396 95.8104 86.7698 95.7605 86.7908C95.7106 86.8119 95.6567 86.8235 95.6019 86.825H93.523C93.4582 86.8242 93.3947 86.8086 93.338 86.7794C93.2814 86.7501 93.2336 86.7083 93.1988 86.6577L89.312 81.1768C89.2635 81.1094 89.1921 81.0589 89.1092 81.0332C89.0263 81.0076 88.9365 81.0082 88.8539 81.0349C88.7714 81.0617 88.7009 81.1132 88.6534 81.1812C88.6059 81.2492 88.5842 81.3299 88.5917 81.4106V86.4238C88.5947 86.4746 88.5868 86.5253 88.5683 86.5731C88.5498 86.621 88.5211 86.6649 88.484 86.7022C88.4469 86.7396 88.4021 86.7698 88.3522 86.7908C88.3023 86.8119 88.2484 86.8235 88.1936 86.825H85.8787C85.8239 86.8235 85.77 86.8119 85.7201 86.7908C85.6702 86.7698 85.6254 86.7396 85.5883 86.7022C85.5512 86.6649 85.5225 86.621 85.504 86.5731C85.4855 86.5253 85.4776 86.4746 85.4806 86.4238V75.6199C85.4776 75.5692 85.4855 75.5184 85.504 75.4706C85.5225 75.4228 85.5512 75.3789 85.5883 75.3415C85.6254 75.3041 85.6702 75.274 85.7201 75.2529C85.77 75.2318 85.8239 75.2202 85.8787 75.2188Z" fill="#1D84C6"/>
<path d="M38.3159 77.9163H35.4696C35.4147 77.9148 35.3608 77.9032 35.3109 77.8821C35.261 77.861 35.2162 77.8309 35.1791 77.7935C35.142 77.7561 35.1133 77.7122 35.0948 77.6644C35.0764 77.6166 35.0684 77.5658 35.0714 77.5151V75.614C35.0684 75.5633 35.0764 75.5125 35.0948 75.4647C35.1133 75.4169 35.142 75.373 35.1791 75.3356C35.2162 75.2982 35.261 75.2681 35.3109 75.247C35.3608 75.2259 35.4147 75.2143 35.4696 75.2129H45.1044C45.1592 75.2143 45.2132 75.2259 45.2631 75.247C45.313 75.2681 45.3578 75.2982 45.3949 75.3356C45.432 75.373 45.4606 75.4169 45.4791 75.4647C45.4976 75.5125 45.5056 75.5633 45.5026 75.614V77.5151C45.5056 77.5658 45.4976 77.6166 45.4791 77.6644C45.4606 77.7122 45.432 77.7561 45.3949 77.7935C45.3578 77.8309 45.313 77.861 45.2631 77.8821C45.2132 77.9032 45.1592 77.9148 45.1044 77.9163H42.293C42.2382 77.9177 42.1842 77.9293 42.1343 77.9504C42.0845 77.9715 42.0396 78.0016 42.0025 78.039C41.9654 78.0764 41.9368 78.1203 41.9183 78.1681C41.8998 78.2159 41.8918 78.2667 41.8949 78.3174V86.4237C41.8979 86.4744 41.8899 86.5252 41.8714 86.573C41.853 86.6208 41.8243 86.6647 41.7872 86.7021C41.7501 86.7395 41.7053 86.7696 41.6554 86.7907C41.6055 86.8118 41.5516 86.8234 41.4967 86.8248H39.1121C39.0573 86.8234 39.0034 86.8118 38.9535 86.7907C38.9036 86.7696 38.8588 86.7395 38.8217 86.7021C38.7846 86.6647 38.7559 86.6208 38.7374 86.573C38.7189 86.5252 38.711 86.4744 38.714 86.4237V78.325C38.7182 78.2737 38.7111 78.2221 38.6931 78.1734C38.6752 78.1247 38.6467 78.0798 38.6095 78.0416C38.5722 78.0034 38.527 77.9726 38.4766 77.951C38.4261 77.9295 38.3714 77.9177 38.3159 77.9163Z" fill="#1D84C6"/>
<path d="M46.9225 75.6199C46.9195 75.5692 46.9274 75.5184 46.9459 75.4706C46.9644 75.4228 46.9931 75.3789 47.0302 75.3415C47.0673 75.3041 47.1121 75.274 47.162 75.2529C47.2119 75.2318 47.2658 75.2202 47.3206 75.2188H51.8354C54.376 75.2188 56.0444 76.5248 56.0444 79.021C56.0444 80.405 55.4287 81.462 54.4765 82.154C54.3918 82.216 54.3328 82.3033 54.3096 82.401C54.2864 82.4987 54.3004 82.6008 54.3493 82.6901L56.3604 86.2147C56.3965 86.2737 56.416 86.3402 56.417 86.4081C56.418 86.4759 56.4005 86.5429 56.3662 86.6028C56.3318 86.6627 56.2816 86.7136 56.2204 86.7508C56.1591 86.788 56.0887 86.8102 56.0156 86.8155H53.5612C53.486 86.8143 53.4126 86.793 53.35 86.7543C53.2874 86.7155 53.2382 86.6608 53.2083 86.5968L51.4229 83.0836C51.391 83.0205 51.341 82.9668 51.2784 82.9282C51.2158 82.8897 51.143 82.8678 51.0679 82.865H50.3948C50.34 82.8664 50.286 82.878 50.2361 82.8991C50.1862 82.9202 50.1414 82.9503 50.1043 82.9877C50.0672 83.0251 50.0386 83.069 50.0201 83.1168C50.0016 83.1646 49.9936 83.2154 49.9966 83.2661V86.4238C49.9997 86.4746 49.9917 86.5253 49.9732 86.5731C49.9547 86.621 49.9261 86.6649 49.889 86.7022C49.8519 86.7396 49.807 86.7698 49.7572 86.7908C49.7073 86.8119 49.6533 86.8235 49.5985 86.825H47.3206C47.2658 86.8235 47.2119 86.8119 47.162 86.7908C47.1121 86.7698 47.0673 86.7396 47.0302 86.7022C46.9931 86.6649 46.9644 86.621 46.9459 86.5731C46.9274 86.5253 46.9195 86.4746 46.9225 86.4238V75.6199ZM51.5235 80.4563C52.3587 80.4563 52.9271 79.9164 52.9271 79.0818C52.9271 78.194 52.412 77.6541 51.507 77.6541H50.3948C50.34 77.6555 50.286 77.6671 50.2361 77.6882C50.1862 77.7093 50.1414 77.7394 50.1043 77.7768C50.0672 77.8142 50.0386 77.8581 50.0201 77.9059C50.0016 77.9537 49.9936 78.0045 49.9966 78.0552V80.0552C49.9936 80.1059 50.0016 80.1566 50.0201 80.2045C50.0386 80.2523 50.0672 80.2962 50.1043 80.3336C50.1414 80.371 50.1862 80.4011 50.2361 80.4222C50.286 80.4432 50.34 80.4548 50.3948 80.4563H51.5235Z" fill="#1D84C6"/>
<path d="M61.8193 75.2188H64.8729C64.9569 75.2221 65.0377 75.2492 65.1045 75.2965C65.1713 75.3437 65.2209 75.4088 65.2464 75.483L69.1455 86.287C69.169 86.3453 69.1775 86.4079 69.1702 86.4698C69.1629 86.5316 69.1402 86.5911 69.1037 86.6434C69.0672 86.6957 69.018 86.7393 68.9601 86.7708C68.9021 86.8024 68.837 86.8209 68.77 86.825H66.2417C66.1546 86.8218 66.0708 86.793 66.0026 86.7427C65.9343 86.6925 65.8851 86.6234 65.8621 86.5455L65.2751 84.7014C65.2518 84.6242 65.2028 84.5558 65.135 84.5059C65.0671 84.456 64.984 84.4273 64.8975 84.4239H61.5135C61.4273 84.4272 61.3444 84.4556 61.2766 84.5051C61.2088 84.5546 61.1596 84.6226 61.1359 84.6995L60.5388 86.5493C60.5151 86.6262 60.4659 86.6942 60.3981 86.7437C60.3303 86.7932 60.2474 86.8216 60.1612 86.825H57.7663C57.6988 86.8206 57.6334 86.8016 57.5754 86.7695C57.5173 86.7374 57.4682 86.6931 57.432 86.6402C57.3959 86.5873 57.3737 86.5272 57.3672 86.4648C57.3607 86.4025 57.3702 86.3396 57.3948 86.2813L61.4479 75.4735C61.475 75.4014 61.525 75.3385 61.5912 75.2931C61.6575 75.2476 61.7369 75.2217 61.8193 75.2188ZM64.3866 81.6597L63.6047 79.1217C63.5855 79.0419 63.5376 78.9705 63.4688 78.9194C63.3999 78.8682 63.3143 78.8403 63.2261 78.8403C63.1378 78.8403 63.0522 78.8682 62.9834 78.9194C62.9145 78.9705 62.8666 79.0419 62.8474 79.1217L62.0266 81.6578C62.0053 81.7155 61.9987 81.7769 62.0072 81.8374C62.0157 81.8979 62.0391 81.9557 62.0757 82.0064C62.1122 82.0571 62.1608 82.0994 62.2177 82.1299C62.2747 82.1605 62.3385 82.1785 62.4042 82.1825H64.0007C64.067 82.1799 64.1318 82.163 64.1898 82.1331C64.2478 82.1033 64.2975 82.0613 64.335 82.0106C64.3724 81.9598 64.3966 81.9017 64.4055 81.8408C64.4145 81.7799 64.408 81.7179 64.3866 81.6597Z" fill="#1D84C6"/>
<path d="M70.9843 75.2188H73.3361C73.3907 75.2204 73.4444 75.2322 73.4941 75.2534C73.5437 75.2746 73.5883 75.3048 73.6252 75.3421C73.6621 75.3795 73.6906 75.4233 73.7089 75.471C73.7273 75.5187 73.7352 75.5693 73.7321 75.6199V83.7091C73.7291 83.7598 73.7371 83.8105 73.7556 83.8584C73.7741 83.9062 73.8027 83.9501 73.8398 83.9875C73.8769 84.0249 73.9217 84.055 73.9716 84.0761C74.0215 84.0971 74.0755 84.1087 74.1303 84.1102H78.8256C78.8804 84.1116 78.9343 84.1232 78.9842 84.1443C79.0341 84.1654 79.0789 84.1955 79.1161 84.2329C79.1532 84.2703 79.1818 84.3142 79.2003 84.362C79.2188 84.4098 79.2268 84.4606 79.2237 84.5113V86.4238C79.2268 86.4746 79.2188 86.5253 79.2003 86.5731C79.1818 86.621 79.1532 86.6649 79.1161 86.7022C79.0789 86.7396 79.0341 86.7698 78.9842 86.7908C78.9343 86.8119 78.8804 86.8235 78.8256 86.825H70.9843C70.9302 86.8225 70.8772 86.8102 70.8282 86.7887C70.7793 86.7672 70.7354 86.7369 70.6992 86.6996C70.6629 86.6623 70.635 86.6188 70.617 86.5714C70.599 86.5241 70.5914 86.4739 70.5944 86.4238V75.6199C70.5914 75.5698 70.599 75.5196 70.617 75.4723C70.635 75.425 70.6629 75.3814 70.6992 75.3441C70.7354 75.3068 70.7793 75.2765 70.8282 75.255C70.8772 75.2335 70.9302 75.2212 70.9843 75.2188Z" fill="#1D84C6"/>
<path d="M81.0335 75.2188H83.3833C83.4381 75.2202 83.492 75.2318 83.5419 75.2529C83.5918 75.274 83.6366 75.3041 83.6737 75.3415C83.7108 75.3789 83.7395 75.4228 83.758 75.4706C83.7765 75.5184 83.7844 75.5692 83.7814 75.6199V86.4238C83.7844 86.4746 83.7765 86.5253 83.758 86.5731C83.7395 86.621 83.7108 86.6649 83.6737 86.7022C83.6366 86.7396 83.5918 86.7698 83.5419 86.7908C83.492 86.8119 83.4381 86.8235 83.3833 86.825H81.0335C80.9787 86.8235 80.9248 86.8119 80.8749 86.7908C80.825 86.7698 80.7802 86.7396 80.7431 86.7022C80.706 86.6649 80.6773 86.621 80.6588 86.5731C80.6403 86.5253 80.6324 86.4746 80.6354 86.4238V75.6199C80.6324 75.5692 80.6403 75.5184 80.6588 75.4706C80.6773 75.4228 80.706 75.3789 80.7431 75.3415C80.7802 75.3041 80.825 75.274 80.8749 75.2529C80.9248 75.2318 80.9787 75.2202 81.0335 75.2188Z" fill="#1D84C6"/>
<path d="M9.62882 82.9906C9.59237 82.9556 9.54836 82.9281 9.49965 82.9099C9.45095 82.8917 9.39865 82.8832 9.34617 82.885C9.29369 82.8868 9.2422 82.8988 9.19508 82.9203C9.14795 82.9418 9.10625 82.9722 9.07268 83.0096C8.40984 83.7416 7.7552 84.1066 6.74553 84.175V84.31C6.7461 84.3288 6.73869 84.3471 6.72488 84.361C6.71108 84.3748 6.69198 84.3831 6.67166 84.3841H6.63267V83.9203C6.63441 83.9109 6.63407 83.9012 6.63168 83.892C6.62929 83.8827 6.62489 83.874 6.61875 83.8663C6.61261 83.8587 6.60485 83.8523 6.59596 83.8475C6.58706 83.8427 6.57721 83.8397 6.567 83.8385H6.07448C6.06433 83.8388 6.05433 83.8409 6.04508 83.8448C6.03583 83.8486 6.02751 83.8542 6.02062 83.8611C6.01374 83.868 6.00841 83.8762 6.00498 83.885C6.00154 83.8939 6.00005 83.9033 6.0006 83.9127V84.4088C6.00004 84.4277 6.00745 84.446 6.02125 84.4598C6.03505 84.4737 6.05416 84.482 6.07448 84.483H6.31663V85.1199C6.33227 85.1074 6.35155 85.0994 6.37204 85.097H6.77221C6.84338 85.0997 6.91327 85.1154 6.9779 85.1431C7.04252 85.1709 7.10061 85.2102 7.14883 85.2587C7.19706 85.3073 7.23447 85.3642 7.25894 85.4261C7.2834 85.4881 7.29444 85.5539 7.29141 85.6198V86.0229C7.29254 86.054 7.28053 86.0843 7.25793 86.1074C7.23532 86.1305 7.2039 86.1445 7.17033 86.1465H7.15186V85.7662C7.15489 85.7003 7.14385 85.6345 7.11939 85.5725C7.09493 85.5105 7.05751 85.4537 7.00929 85.4051C6.96106 85.3565 6.90298 85.3173 6.83835 85.2895C6.77373 85.2618 6.70383 85.2461 6.63267 85.2434C6.5615 85.2461 6.4916 85.2618 6.42698 85.2895C6.36235 85.3173 6.30427 85.3565 6.25604 85.4051C6.20782 85.4537 6.17041 85.5105 6.14594 85.5725C6.12148 85.6345 6.11044 85.7003 6.11347 85.7662V86.1693C6.11235 86.2002 6.12443 86.2303 6.14708 86.2531C6.16974 86.2759 6.20116 86.2895 6.23455 86.2909H6.31869V87.1084C7.25218 87.1107 8.17432 86.9188 9.01714 86.547C9.85995 86.1752 10.602 85.633 11.1885 84.9602C11.2596 84.8781 11.2958 84.7747 11.2901 84.6696C11.2845 84.5644 11.2373 84.4649 11.1577 84.3898L9.62882 82.9906Z" fill="#1D84C6"/>
<path d="M5.04432 75.2847H5.48553C5.50422 75.2837 5.52175 75.276 5.5344 75.2632C5.54705 75.2504 5.55381 75.2335 5.55325 75.2162V74.7707C5.55352 74.7622 5.55199 74.7538 5.54873 74.7458C5.54548 74.7379 5.54056 74.7306 5.53427 74.7244C5.52798 74.7182 5.52044 74.7132 5.51208 74.7097C5.50371 74.7063 5.49469 74.7043 5.48553 74.7041H5.04432C5.03515 74.7043 5.02613 74.7063 5.01777 74.7097C5.0094 74.7132 5.00186 74.7182 4.99557 74.7244C4.98928 74.7306 4.98437 74.7379 4.98111 74.7458C4.97786 74.7538 4.97632 74.7622 4.9766 74.7707V75.2162C4.97603 75.2335 4.98279 75.2504 4.99544 75.2632C5.00809 75.276 5.02563 75.2837 5.04432 75.2847Z" fill="#1D84C6"/>
<path d="M1.4364 77.438H1.88582C1.90451 77.4371 1.92205 77.4294 1.9347 77.4166C1.94735 77.4038 1.95411 77.3869 1.95355 77.3695V76.926C1.95411 76.9086 1.94735 76.8917 1.9347 76.8789C1.92205 76.8661 1.90451 76.8584 1.88582 76.8574H1.4364C1.42723 76.8579 1.41826 76.8601 1.40999 76.8638C1.40173 76.8675 1.39433 76.8727 1.38823 76.879C1.38213 76.8854 1.37744 76.8928 1.37444 76.9009C1.37144 76.9089 1.37018 76.9175 1.37073 76.926V77.3752C1.37122 77.3914 1.37823 77.4069 1.39039 77.4185C1.40255 77.4301 1.41897 77.4371 1.4364 77.438Z" fill="#1D84C6"/>
<path d="M2.94275 78.3873H3.38397C3.39313 78.3868 3.40211 78.3846 3.41037 78.3809C3.41864 78.3772 3.42604 78.372 3.43214 78.3657C3.43824 78.3593 3.44292 78.3519 3.44593 78.3438C3.44893 78.3358 3.45019 78.3272 3.44963 78.3187V77.8733C3.4502 77.8564 3.44365 77.84 3.43139 77.8276C3.41913 77.8151 3.40211 77.8076 3.38397 77.8066H2.94275C2.93359 77.8069 2.92457 77.8088 2.9162 77.8123C2.90784 77.8158 2.9003 77.8208 2.89401 77.8269C2.88772 77.8331 2.8828 77.8404 2.87955 77.8484C2.87629 77.8563 2.87476 77.8648 2.87503 77.8733V78.3263C2.87649 78.3424 2.88415 78.3574 2.8966 78.3686C2.90905 78.3798 2.92544 78.3864 2.94275 78.3873Z" fill="#1D84C6"/>
<path d="M1.95757 84.3516H1.38707C1.37521 84.3521 1.36357 84.3547 1.35281 84.3594C1.34206 84.364 1.3324 84.3706 1.32439 84.3787C1.31639 84.3868 1.31019 84.3964 1.30616 84.4067C1.30212 84.417 1.30033 84.428 1.30088 84.439V85.0093C1.3003 85.0314 1.30894 85.0528 1.325 85.0691C1.34106 85.0854 1.3633 85.0953 1.38707 85.0968H1.95757C1.98134 85.0953 2.00358 85.0854 2.01964 85.0691C2.0357 85.0528 2.04434 85.0314 2.04376 85.0093V84.439C2.04431 84.428 2.04252 84.417 2.03848 84.4067C2.03445 84.3964 2.02825 84.3868 2.02024 84.3787C2.01224 84.3706 2.00258 84.364 1.99183 84.3594C1.98107 84.3547 1.96943 84.3521 1.95757 84.3516Z" fill="#1D84C6"/>
<path d="M2.30044 80.1909V80.5716C2.29988 80.579 2.30094 80.5864 2.30355 80.5934C2.30617 80.6005 2.31028 80.6069 2.31564 80.6124C2.32101 80.6179 2.32751 80.6224 2.33477 80.6255C2.34203 80.6286 2.3499 80.6304 2.3579 80.6306H2.7437C2.7517 80.6304 2.75957 80.6286 2.76683 80.6255C2.77409 80.6224 2.7806 80.6179 2.78596 80.6124C2.79132 80.6069 2.79543 80.6005 2.79805 80.5934C2.80066 80.5864 2.80172 80.579 2.80116 80.5716V80.1909C2.80172 80.1834 2.80066 80.176 2.79805 80.169C2.79543 80.162 2.79132 80.1555 2.78596 80.15C2.7806 80.1445 2.77409 80.1401 2.76683 80.1369C2.75957 80.1338 2.7517 80.1321 2.7437 80.1318H2.3579C2.34193 80.1328 2.327 80.1395 2.31628 80.1505C2.30555 80.1616 2.29987 80.176 2.30044 80.1909Z" fill="#1D84C6"/>
<path d="M3.69398 83.0632V83.3811C3.69341 83.3934 3.698 83.4055 3.70681 83.4147C3.71561 83.424 3.72793 83.4297 3.74118 83.4306H4.05721C4.07045 83.4297 4.08278 83.424 4.09158 83.4147C4.10038 83.4055 4.10498 83.3934 4.10441 83.3811V83.0632C4.10468 83.0572 4.10368 83.0512 4.10146 83.0456C4.09923 83.0399 4.09583 83.0348 4.09145 83.0303C4.08706 83.0259 4.08178 83.0223 4.07591 83.0198C4.07003 83.0173 4.06368 83.0159 4.05721 83.0156H3.73092C3.71972 83.0183 3.70988 83.0245 3.70313 83.0332C3.69638 83.0419 3.69314 83.0525 3.69398 83.0632Z" fill="#1D84C6"/>
<path d="M0.742979 80.607V80.0367C0.743539 80.0143 0.734615 79.9926 0.718119 79.9763C0.701623 79.9599 0.678869 79.9502 0.654736 79.9492H0.0862881C0.0625198 79.9507 0.0402817 79.9606 0.02422 79.9769C0.0081583 79.9932 -0.00048445 80.0146 9.74235e-05 80.0367V80.607C-0.000453973 80.618 0.00133925 80.629 0.00537445 80.6393C0.00940965 80.6497 0.0156076 80.6592 0.0236135 80.6673C0.0316193 80.6754 0.0412759 80.682 0.0520305 80.6867C0.0627851 80.6913 0.0744264 80.694 0.0862881 80.6945H0.654736C0.666774 80.6942 0.678637 80.6917 0.689629 80.6872C0.700621 80.6826 0.710519 80.6761 0.718741 80.668C0.726963 80.6598 0.733343 80.6502 0.737506 80.6397C0.741668 80.6293 0.743529 80.6182 0.742979 80.607Z" fill="#1D84C6"/>
<path d="M5.8199 76.5041H6.31653V77.755C6.34526 77.755 6.36783 77.755 6.39656 77.755C6.88161 77.7556 7.36012 77.8587 7.79572 78.0563C8.23133 78.254 8.61256 78.541 8.91045 78.8956C8.94447 78.9343 8.98709 78.9656 9.0354 78.9876C9.08371 79.0095 9.13657 79.0215 9.19035 79.0228C9.24414 79.024 9.29759 79.0145 9.34703 78.9949C9.39648 78.9752 9.44076 78.9459 9.47685 78.909L10.9913 77.4109C11.0636 77.3389 11.1066 77.2458 11.113 77.1477C11.1193 77.0495 11.0887 76.9524 11.0262 76.8729C9.85034 75.4622 8.19425 74.9337 6.31653 74.9033V75.141H6.88087C6.90073 75.1417 6.92023 75.1461 6.93825 75.1539C6.95626 75.1616 6.97242 75.1727 6.98579 75.1863C6.99916 75.1999 7.00947 75.2159 7.01612 75.2332C7.02277 75.2506 7.02562 75.269 7.02452 75.2873V76.2379C7.02502 76.2701 7.01309 76.3014 6.99089 76.3261C6.96869 76.3509 6.93768 76.3674 6.90344 76.3729C6.90344 76.3729 6.90344 76.3596 6.90344 76.3501V75.7949C6.90735 75.6574 6.85275 75.5239 6.75141 75.4232C6.65007 75.3226 6.5101 75.2629 6.36167 75.2569H6.21802C6.06813 75.2629 5.92689 75.3236 5.82532 75.4259C5.72375 75.5282 5.67014 75.6637 5.67625 75.8025V76.3577C5.67515 76.376 5.678 76.3945 5.68465 76.4118C5.6913 76.4292 5.70161 76.4451 5.71498 76.4587C5.72835 76.4724 5.74451 76.4834 5.76253 76.4912C5.78054 76.4989 5.80004 76.5033 5.8199 76.5041Z" fill="#1D84C6"/>
<path d="M3.10722 77.5133H4.63608C4.70049 77.5108 4.76124 77.4849 4.80507 77.441C4.8489 77.3972 4.87224 77.3392 4.87002 77.2795V75.7377C4.8714 75.708 4.86644 75.6783 4.85542 75.6504C4.8444 75.6224 4.82755 75.5968 4.80582 75.5749C4.78409 75.553 4.75791 75.5353 4.72878 75.5228C4.69966 75.5102 4.66815 75.5032 4.63608 75.502H3.10722C3.07514 75.5032 3.04363 75.5102 3.01451 75.5228C2.98538 75.5353 2.95921 75.553 2.93748 75.5749C2.91575 75.5968 2.89889 75.6224 2.88787 75.6504C2.87686 75.6783 2.8719 75.708 2.87327 75.7377V77.2795C2.87105 77.3392 2.8944 77.3972 2.93822 77.441C2.98205 77.4849 3.0428 77.5108 3.10722 77.5133Z" fill="#1D84C6"/>
<path d="M5.93299 77.4645V76.8314C5.93357 76.8073 5.92406 76.784 5.90646 76.7662C5.88887 76.7485 5.86454 76.7378 5.83859 76.7363H5.21269C5.18637 76.7373 5.16153 76.7478 5.1435 76.7656C5.12546 76.7834 5.11567 76.807 5.11623 76.8314V77.4645C5.11567 77.4888 5.12546 77.5125 5.1435 77.5302C5.16153 77.548 5.18637 77.5585 5.21269 77.5595H5.83859C5.86454 77.558 5.88887 77.5473 5.90646 77.5296C5.92406 77.5119 5.93357 77.4885 5.93299 77.4645Z" fill="#1D84C6"/>
<path d="M5.00307 78.8971C5.01466 78.8966 5.02603 78.894 5.03654 78.8894C5.04705 78.8849 5.05648 78.8784 5.06429 78.8705C5.07211 78.8625 5.07815 78.8532 5.08208 78.8431C5.08602 78.8329 5.08776 78.8222 5.08721 78.8114V78.2536C5.08776 78.2429 5.08602 78.2321 5.08208 78.222C5.07815 78.2119 5.07211 78.2026 5.06429 78.1946C5.05648 78.1867 5.04705 78.1802 5.03654 78.1756C5.02603 78.1711 5.01466 78.1685 5.00307 78.168H4.44898C4.43739 78.1685 4.42602 78.1711 4.41551 78.1756C4.40501 78.1802 4.39558 78.1867 4.38776 78.1946C4.37994 78.2026 4.3739 78.2119 4.36997 78.222C4.36603 78.2321 4.36429 78.2429 4.36485 78.2536V78.8114C4.36429 78.8222 4.36603 78.8329 4.36997 78.8431C4.3739 78.8532 4.37994 78.8625 4.38776 78.8705C4.39558 78.8784 4.40501 78.8849 4.41551 78.8894C4.42602 78.894 4.43739 78.8966 4.44898 78.8971H5.00307Z" fill="#1D84C6"/>
<path d="M4.95387 83.3795H5.5059C5.52894 83.3785 5.55065 83.3692 5.56638 83.3535C5.58211 83.3379 5.5906 83.3171 5.59004 83.2957V82.7361C5.59059 82.7253 5.58885 82.7146 5.58492 82.7044C5.58098 82.6943 5.57494 82.685 5.56712 82.677C5.55931 82.6691 5.54988 82.6626 5.53937 82.6581C5.52887 82.6535 5.51749 82.6509 5.5059 82.6504H4.95387C4.94227 82.6509 4.9309 82.6535 4.92039 82.6581C4.90989 82.6626 4.90046 82.6691 4.89264 82.677C4.88483 82.685 4.87878 82.6943 4.87485 82.7044C4.87092 82.7146 4.86918 82.7253 4.86973 82.7361V83.2957C4.86917 83.3171 4.87766 83.3379 4.89339 83.3535C4.90911 83.3692 4.93082 83.3785 4.95387 83.3795Z" fill="#1D84C6"/>
<path d="M5.96342 86.5781H5.41139C5.39979 86.5786 5.38842 86.5812 5.37791 86.5858C5.36741 86.5904 5.35798 86.5968 5.35016 86.6048C5.34235 86.6127 5.3363 86.622 5.33237 86.6322C5.32844 86.6423 5.3267 86.653 5.32725 86.6638V87.2216C5.3267 87.2323 5.32844 87.2431 5.33237 87.2532C5.3363 87.2633 5.34235 87.2726 5.35016 87.2806C5.35798 87.2885 5.36741 87.295 5.37791 87.2996C5.38842 87.3041 5.39979 87.3067 5.41139 87.3072H5.96342C5.97501 87.3067 5.98639 87.3041 5.99689 87.2996C6.0074 87.295 6.01683 87.2885 6.02464 87.2806C6.03246 87.2726 6.0385 87.2633 6.04244 87.2532C6.04637 87.2431 6.04811 87.2323 6.04756 87.2216V86.6638C6.04811 86.653 6.04637 86.6423 6.04244 86.6322C6.0385 86.622 6.03246 86.6127 6.02464 86.6048C6.01683 86.5968 6.0074 86.5904 5.99689 86.5858C5.98639 86.5812 5.97501 86.5786 5.96342 86.5781Z" fill="#1D84C6"/>
<path d="M4.00199 79.6785V78.9295C4.00311 78.9006 3.9919 78.8724 3.97078 78.851C3.94966 78.8297 3.92033 78.8169 3.88912 78.8154H3.14624C3.11503 78.8169 3.0857 78.8297 3.06458 78.851C3.04346 78.8724 3.03225 78.9006 3.03337 78.9295V79.6785C3.03254 79.6929 3.03482 79.7073 3.04007 79.7209C3.04532 79.7344 3.05344 79.7469 3.06395 79.7575C3.07446 79.7681 3.08715 79.7767 3.10128 79.7827C3.11541 79.7887 3.13069 79.7921 3.14624 79.7926H3.89938C3.92894 79.7892 3.95602 79.7756 3.97509 79.7544C3.99415 79.7332 4.00377 79.7061 4.00199 79.6785Z" fill="#1D84C6"/>
<path d="M4.4184 82.2723V81.5232C4.41923 81.5089 4.41695 81.4945 4.4117 81.4809C4.40645 81.4673 4.39833 81.4549 4.38782 81.4443C4.37731 81.4336 4.36462 81.4251 4.35049 81.419C4.33636 81.413 4.32108 81.4097 4.30553 81.4092H3.56265C3.53144 81.4107 3.50211 81.4234 3.48099 81.4448C3.45987 81.4661 3.44866 81.4943 3.44978 81.5232V82.2723C3.44866 82.3012 3.45987 82.3294 3.48099 82.3507C3.50211 82.3721 3.53144 82.3849 3.56265 82.3863H4.30964C4.34031 82.3844 4.36892 82.3713 4.38927 82.35C4.40963 82.3286 4.42009 82.3007 4.4184 82.2723Z" fill="#1D84C6"/>
<path d="M0.82082 79.7934H2.1342C2.16222 79.7934 2.18995 79.7881 2.21569 79.7779C2.24142 79.7676 2.26462 79.7526 2.28384 79.7337C2.30307 79.7148 2.31792 79.6925 2.32748 79.6681C2.33704 79.6437 2.3411 79.6178 2.33942 79.5918V78.2611C2.3411 78.2352 2.33704 78.2092 2.32748 78.1848C2.31792 78.1604 2.30307 78.1381 2.28384 78.1192C2.26462 78.1003 2.24142 78.0853 2.21569 78.075C2.18995 78.0648 2.16222 78.0595 2.1342 78.0596H0.82082C0.792803 78.0595 0.765071 78.0648 0.739335 78.075C0.713599 78.0853 0.690404 78.1003 0.671178 78.1192C0.651951 78.1381 0.637102 78.1604 0.627544 78.1848C0.617987 78.2092 0.613923 78.2352 0.615604 78.2611V79.5918C0.613923 79.6178 0.617987 79.6437 0.627544 79.6681C0.637102 79.6925 0.651951 79.7148 0.671178 79.7337C0.690404 79.7526 0.713599 79.7676 0.739335 79.7779C0.765071 79.7881 0.792803 79.7934 0.82082 79.7934Z" fill="#1D84C6"/>
<path d="M5.33563 84.2762C5.33842 84.2017 5.30939 84.1291 5.25484 84.0743C5.20029 84.0195 5.12461 83.9869 5.04423 83.9834H3.1193C3.07941 83.9849 3.04022 83.9936 3.00397 84.0091C2.96772 84.0246 2.93514 84.0466 2.90807 84.0738C2.88101 84.101 2.85999 84.1329 2.84624 84.1676C2.83248 84.2023 2.82625 84.2392 2.8279 84.2762V86.2096C2.82566 86.2838 2.85493 86.3558 2.90943 86.4102C2.96392 86.4646 3.03928 86.497 3.1193 86.5005H5.03602C5.1173 86.4985 5.19444 86.4668 5.25057 86.4123C5.30671 86.3578 5.33729 86.2849 5.33563 86.2096V84.2762Z" fill="#1D84C6"/>
<path d="M2.87303 81.3425C2.87496 81.3054 2.86893 81.2683 2.8553 81.2334C2.84167 81.1984 2.8207 81.1663 2.79361 81.1389C2.76651 81.1115 2.73383 81.0894 2.69745 81.0738C2.66106 81.0581 2.6217 81.0493 2.58162 81.0479H0.662852C0.622775 81.0493 0.583409 81.0581 0.547024 81.0738C0.51064 81.0894 0.477958 81.1115 0.450865 81.1389C0.423772 81.1663 0.402805 81.1984 0.389174 81.2334C0.375542 81.2683 0.369517 81.3054 0.371445 81.3425V83.2778C0.369517 83.3149 0.375542 83.352 0.389174 83.387C0.402805 83.4219 0.423772 83.454 0.450865 83.4814C0.477958 83.5088 0.51064 83.531 0.547024 83.5466C0.583409 83.5622 0.622775 83.571 0.662852 83.5725H2.58162C2.6217 83.571 2.66106 83.5622 2.69745 83.5466C2.73383 83.531 2.76651 83.5088 2.79361 83.4814C2.8207 83.454 2.84167 83.4219 2.8553 83.387C2.86893 83.352 2.87496 83.3149 2.87303 83.2778V81.3425Z" fill="#1D84C6"/>
</g>
<defs>
<linearGradient id="paint0_linear_2399_13372" x1="49.7835" y1="28.2713" x2="67.0083" y2="65.4582" gradientUnits="userSpaceOnUse">
<stop stop-color="#1CB393"/>
<stop offset="1" stop-color="#1D84C6"/>
</linearGradient>
<linearGradient id="paint1_linear_2399_13372" x1="819.8" y1="348.686" x2="1081.16" y2="867.37" gradientUnits="userSpaceOnUse">
<stop stop-color="#1CB393"/>
<stop offset="1" stop-color="#1D84C6"/>
</linearGradient>
<linearGradient id="paint2_linear_2399_13372" x1="562.933" y1="479.298" x2="825.47" y2="997.598" gradientUnits="userSpaceOnUse">
<stop stop-color="#1CB393"/>
<stop offset="1" stop-color="#1D84C6"/>
</linearGradient>
<linearGradient id="paint3_linear_2399_13372" x1="620.696" y1="457.099" x2="881.062" y2="974.706" gradientUnits="userSpaceOnUse">
<stop stop-color="#1CB393"/>
<stop offset="1" stop-color="#1D84C6"/>
</linearGradient>
<linearGradient id="paint4_linear_2399_13372" x1="457.609" y1="783.085" x2="794.961" y2="1452.77" gradientUnits="userSpaceOnUse">
<stop stop-color="#1CB393"/>
<stop offset="1" stop-color="#1D84C6"/>
</linearGradient>
<linearGradient id="paint5_linear_2399_13372" x1="463.006" y1="453.172" x2="691.033" y2="905.526" gradientUnits="userSpaceOnUse">
<stop stop-color="#1CB393"/>
<stop offset="1" stop-color="#1D84C6"/>
</linearGradient>
<linearGradient id="paint6_linear_2399_13372" x1="384.282" y1="392.64" x2="570.953" y2="762.803" gradientUnits="userSpaceOnUse">
<stop stop-color="#1CB393"/>
<stop offset="1" stop-color="#1D84C6"/>
</linearGradient>
<linearGradient id="paint7_linear_2399_13372" x1="520.317" y1="726.969" x2="857.607" y2="1396.13" gradientUnits="userSpaceOnUse">
<stop stop-color="#1CB393"/>
<stop offset="1" stop-color="#1D84C6"/>
</linearGradient>
<linearGradient id="paint8_linear_2399_13372" x1="8388.5" y1="2091.61" x2="9919.17" y2="6131.65" gradientUnits="userSpaceOnUse">
<stop stop-color="#1CB393"/>
<stop offset="1" stop-color="#1D84C6"/>
</linearGradient>
<linearGradient id="paint9_linear_2399_13372" x1="2337.07" y1="1404.9" x2="3243.28" y2="3202.18" gradientUnits="userSpaceOnUse">
<stop stop-color="#1CB393"/>
<stop offset="1" stop-color="#1D84C6"/>
</linearGradient>
<linearGradient id="paint10_linear_2399_13372" x1="1080.34" y1="536.898" x2="1451.91" y2="1272.95" gradientUnits="userSpaceOnUse">
<stop stop-color="#1CB393"/>
<stop offset="1" stop-color="#1D84C6"/>
</linearGradient>
<linearGradient id="paint11_linear_2399_13372" x1="861.117" y1="531.254" x2="1189.43" y2="1182.27" gradientUnits="userSpaceOnUse">
<stop stop-color="#1CB393"/>
<stop offset="1" stop-color="#1D84C6"/>
</linearGradient>
<linearGradient id="paint12_linear_2399_13372" x1="743.501" y1="613.141" x2="1071.73" y2="1264.35" gradientUnits="userSpaceOnUse">
<stop stop-color="#1CB393"/>
<stop offset="1" stop-color="#1D84C6"/>
</linearGradient>
<linearGradient id="paint13_linear_2399_13372" x1="641.391" y1="683.88" x2="969.309" y2="1334.83" gradientUnits="userSpaceOnUse">
<stop stop-color="#1CB393"/>
<stop offset="1" stop-color="#1D84C6"/>
</linearGradient>
<linearGradient id="paint14_linear_2399_13372" x1="997.356" y1="779.234" x2="1437.69" y2="1652.45" gradientUnits="userSpaceOnUse">
<stop stop-color="#1CB393"/>
<stop offset="1" stop-color="#1D84C6"/>
</linearGradient>
<linearGradient id="paint15_linear_2399_13372" x1="916.723" y1="833.095" x2="1357.06" y2="1706.31" gradientUnits="userSpaceOnUse">
<stop stop-color="#1CB393"/>
<stop offset="1" stop-color="#1D84C6"/>
</linearGradient>
<linearGradient id="paint16_linear_2399_13372" x1="1450.19" y1="1497.86" x2="2228.8" y2="3041.93" gradientUnits="userSpaceOnUse">
<stop stop-color="#1CB393"/>
<stop offset="1" stop-color="#1D84C6"/>
</linearGradient>
<linearGradient id="paint17_linear_2399_13372" x1="1942" y1="2294.1" x2="3078.48" y2="4547.33" gradientUnits="userSpaceOnUse">
<stop stop-color="#1CB393"/>
<stop offset="1" stop-color="#1D84C6"/>
</linearGradient>
<linearGradient id="paint18_linear_2399_13372" x1="1743.93" y1="2379.04" x2="2881.96" y2="4635.62" gradientUnits="userSpaceOnUse">
<stop stop-color="#1CB393"/>
<stop offset="1" stop-color="#1D84C6"/>
</linearGradient>
<clipPath id="clip0_2399_13372">
<rect width="96" height="87.3061" fill="white"/>
</clipPath>
</defs>
</svg>
